<mxfile host="app.diagrams.net" modified="2023-07-19T05:05:36.826Z" agent="Mozilla/5.0 (Windows NT 10.0; Win64; x64) AppleWebKit/537.36 (KHTML, like Gecko) Chrome/114.0.0.0 Safari/537.36" etag="wYqzgT9wU4Vd192FM1XO" version="21.6.2" type="github">
  <diagram name="Page-1" id="e56a1550-8fbb-45ad-956c-1786394a9013">
    <mxGraphModel dx="2642" dy="1932" grid="1" gridSize="10" guides="1" tooltips="1" connect="1" arrows="1" fold="1" page="1" pageScale="1" pageWidth="1100" pageHeight="850" background="none" math="0" shadow="0">
      <root>
        <mxCell id="0" />
        <mxCell id="1" parent="0" />
        <mxCell id="s8aTRHkVXZxyGGqHwzvx-160" value="화장품 테이블" style="swimlane;html=1;fontStyle=0;childLayout=stackLayout;horizontal=1;startSize=26;fillColor=#B2C9AB;horizontalStack=0;resizeParent=1;resizeLast=0;collapsible=1;marginBottom=0;swimlaneFillColor=#ffffff;align=center;rounded=0;shadow=0;comic=0;labelBackgroundColor=none;strokeWidth=1;fontFamily=Verdana;fontSize=14;strokeColor=#788AA3;fontColor=#46495D;" parent="1" vertex="1">
          <mxGeometry x="100" y="20" width="200" height="460" as="geometry" />
        </mxCell>
        <mxCell id="s8aTRHkVXZxyGGqHwzvx-161" value="화장품ID" style="shape=partialRectangle;top=0;left=0;right=0;bottom=1;html=1;align=left;verticalAlign=middle;fillColor=none;spacingLeft=34;spacingRight=4;whiteSpace=wrap;overflow=hidden;rotatable=0;points=[[0,0.5],[1,0.5]];portConstraint=eastwest;dropTarget=0;fontStyle=5;labelBackgroundColor=none;strokeColor=#788AA3;fontColor=#46495D;" parent="s8aTRHkVXZxyGGqHwzvx-160" vertex="1">
          <mxGeometry y="26" width="200" height="30" as="geometry" />
        </mxCell>
        <mxCell id="s8aTRHkVXZxyGGqHwzvx-162" value="PK" style="shape=partialRectangle;top=0;left=0;bottom=0;html=1;fillColor=none;align=left;verticalAlign=middle;spacingLeft=4;spacingRight=4;whiteSpace=wrap;overflow=hidden;rotatable=0;points=[];portConstraint=eastwest;part=1;labelBackgroundColor=none;strokeColor=#788AA3;fontColor=#46495D;" parent="s8aTRHkVXZxyGGqHwzvx-161" vertex="1" connectable="0">
          <mxGeometry width="30" height="30" as="geometry" />
        </mxCell>
        <mxCell id="yD0bjzbKo4kkje4cAU-9-12" value="브랜드ID" style="shape=partialRectangle;top=0;left=0;right=0;bottom=0;html=1;align=left;verticalAlign=top;fillColor=none;spacingLeft=34;spacingRight=4;whiteSpace=wrap;overflow=hidden;rotatable=0;points=[[0,0.5],[1,0.5]];portConstraint=eastwest;dropTarget=0;labelBackgroundColor=none;strokeColor=#788AA3;fontColor=#46495D;" parent="s8aTRHkVXZxyGGqHwzvx-160" vertex="1">
          <mxGeometry y="56" width="200" height="26" as="geometry" />
        </mxCell>
        <mxCell id="yD0bjzbKo4kkje4cAU-9-13" value="FK" style="shape=partialRectangle;top=0;left=0;bottom=0;html=1;fillColor=none;align=left;verticalAlign=top;spacingLeft=4;spacingRight=4;whiteSpace=wrap;overflow=hidden;rotatable=0;points=[];portConstraint=eastwest;part=1;labelBackgroundColor=none;strokeColor=#788AA3;fontColor=#46495D;" parent="yD0bjzbKo4kkje4cAU-9-12" vertex="1" connectable="0">
          <mxGeometry width="30" height="26" as="geometry" />
        </mxCell>
        <mxCell id="yD0bjzbKo4kkje4cAU-9-90" value="제품 명" style="shape=partialRectangle;top=0;left=0;right=0;bottom=0;html=1;align=left;verticalAlign=top;fillColor=none;spacingLeft=34;spacingRight=4;whiteSpace=wrap;overflow=hidden;rotatable=0;points=[[0,0.5],[1,0.5]];portConstraint=eastwest;dropTarget=0;labelBackgroundColor=none;strokeColor=#788AA3;fontColor=#46495D;" parent="s8aTRHkVXZxyGGqHwzvx-160" vertex="1">
          <mxGeometry y="82" width="200" height="26" as="geometry" />
        </mxCell>
        <mxCell id="yD0bjzbKo4kkje4cAU-9-91" value="" style="shape=partialRectangle;top=0;left=0;bottom=0;html=1;fillColor=none;align=left;verticalAlign=top;spacingLeft=4;spacingRight=4;whiteSpace=wrap;overflow=hidden;rotatable=0;points=[];portConstraint=eastwest;part=1;labelBackgroundColor=none;strokeColor=#788AA3;fontColor=#46495D;" parent="yD0bjzbKo4kkje4cAU-9-90" vertex="1" connectable="0">
          <mxGeometry width="30" height="26" as="geometry" />
        </mxCell>
        <mxCell id="yD0bjzbKo4kkje4cAU-9-92" value="제품 관리코드" style="shape=partialRectangle;top=0;left=0;right=0;bottom=0;html=1;align=left;verticalAlign=top;fillColor=none;spacingLeft=34;spacingRight=4;whiteSpace=wrap;overflow=hidden;rotatable=0;points=[[0,0.5],[1,0.5]];portConstraint=eastwest;dropTarget=0;labelBackgroundColor=none;strokeColor=#788AA3;fontColor=#46495D;" parent="s8aTRHkVXZxyGGqHwzvx-160" vertex="1">
          <mxGeometry y="108" width="200" height="26" as="geometry" />
        </mxCell>
        <mxCell id="yD0bjzbKo4kkje4cAU-9-93" value="" style="shape=partialRectangle;top=0;left=0;bottom=0;html=1;fillColor=none;align=left;verticalAlign=top;spacingLeft=4;spacingRight=4;whiteSpace=wrap;overflow=hidden;rotatable=0;points=[];portConstraint=eastwest;part=1;labelBackgroundColor=none;strokeColor=#788AA3;fontColor=#46495D;" parent="yD0bjzbKo4kkje4cAU-9-92" vertex="1" connectable="0">
          <mxGeometry width="30" height="26" as="geometry" />
        </mxCell>
        <mxCell id="yD0bjzbKo4kkje4cAU-9-94" value="제품 용량" style="shape=partialRectangle;top=0;left=0;right=0;bottom=0;html=1;align=left;verticalAlign=top;fillColor=none;spacingLeft=34;spacingRight=4;whiteSpace=wrap;overflow=hidden;rotatable=0;points=[[0,0.5],[1,0.5]];portConstraint=eastwest;dropTarget=0;labelBackgroundColor=none;strokeColor=#788AA3;fontColor=#46495D;" parent="s8aTRHkVXZxyGGqHwzvx-160" vertex="1">
          <mxGeometry y="134" width="200" height="26" as="geometry" />
        </mxCell>
        <mxCell id="yD0bjzbKo4kkje4cAU-9-95" value="" style="shape=partialRectangle;top=0;left=0;bottom=0;html=1;fillColor=none;align=left;verticalAlign=top;spacingLeft=4;spacingRight=4;whiteSpace=wrap;overflow=hidden;rotatable=0;points=[];portConstraint=eastwest;part=1;labelBackgroundColor=none;strokeColor=#788AA3;fontColor=#46495D;" parent="yD0bjzbKo4kkje4cAU-9-94" vertex="1" connectable="0">
          <mxGeometry width="30" height="26" as="geometry" />
        </mxCell>
        <mxCell id="yD0bjzbKo4kkje4cAU-9-96" value="용량 단위 코드" style="shape=partialRectangle;top=0;left=0;right=0;bottom=0;html=1;align=left;verticalAlign=top;fillColor=none;spacingLeft=34;spacingRight=4;whiteSpace=wrap;overflow=hidden;rotatable=0;points=[[0,0.5],[1,0.5]];portConstraint=eastwest;dropTarget=0;labelBackgroundColor=none;strokeColor=#788AA3;fontColor=#46495D;" parent="s8aTRHkVXZxyGGqHwzvx-160" vertex="1">
          <mxGeometry y="160" width="200" height="26" as="geometry" />
        </mxCell>
        <mxCell id="yD0bjzbKo4kkje4cAU-9-97" value="" style="shape=partialRectangle;top=0;left=0;bottom=0;html=1;fillColor=none;align=left;verticalAlign=top;spacingLeft=4;spacingRight=4;whiteSpace=wrap;overflow=hidden;rotatable=0;points=[];portConstraint=eastwest;part=1;labelBackgroundColor=none;strokeColor=#788AA3;fontColor=#46495D;" parent="yD0bjzbKo4kkje4cAU-9-96" vertex="1" connectable="0">
          <mxGeometry width="30" height="26" as="geometry" />
        </mxCell>
        <mxCell id="s8aTRHkVXZxyGGqHwzvx-169" value="카테고리ID" style="shape=partialRectangle;top=0;left=0;right=0;bottom=0;html=1;align=left;verticalAlign=top;fillColor=none;spacingLeft=34;spacingRight=4;whiteSpace=wrap;overflow=hidden;rotatable=0;points=[[0,0.5],[1,0.5]];portConstraint=eastwest;dropTarget=0;labelBackgroundColor=none;strokeColor=#788AA3;fontColor=#46495D;" parent="s8aTRHkVXZxyGGqHwzvx-160" vertex="1">
          <mxGeometry y="186" width="200" height="26" as="geometry" />
        </mxCell>
        <mxCell id="s8aTRHkVXZxyGGqHwzvx-170" value="FK" style="shape=partialRectangle;top=0;left=0;bottom=0;html=1;fillColor=none;align=left;verticalAlign=top;spacingLeft=4;spacingRight=4;whiteSpace=wrap;overflow=hidden;rotatable=0;points=[];portConstraint=eastwest;part=1;labelBackgroundColor=none;strokeColor=#788AA3;fontColor=#46495D;" parent="s8aTRHkVXZxyGGqHwzvx-169" vertex="1" connectable="0">
          <mxGeometry width="30" height="26" as="geometry" />
        </mxCell>
        <mxCell id="N3Z6m8R5QKqXO_m7Msgg-6" value="서브카테고리ID" style="shape=partialRectangle;top=0;left=0;right=0;bottom=0;html=1;align=left;verticalAlign=top;fillColor=none;spacingLeft=34;spacingRight=4;whiteSpace=wrap;overflow=hidden;rotatable=0;points=[[0,0.5],[1,0.5]];portConstraint=eastwest;dropTarget=0;labelBackgroundColor=none;strokeColor=#788AA3;fontColor=#46495D;" parent="s8aTRHkVXZxyGGqHwzvx-160" vertex="1">
          <mxGeometry y="212" width="200" height="26" as="geometry" />
        </mxCell>
        <mxCell id="N3Z6m8R5QKqXO_m7Msgg-7" value="FK" style="shape=partialRectangle;top=0;left=0;bottom=0;html=1;fillColor=none;align=left;verticalAlign=top;spacingLeft=4;spacingRight=4;whiteSpace=wrap;overflow=hidden;rotatable=0;points=[];portConstraint=eastwest;part=1;labelBackgroundColor=none;strokeColor=#788AA3;fontColor=#46495D;" parent="N3Z6m8R5QKqXO_m7Msgg-6" vertex="1" connectable="0">
          <mxGeometry width="30" height="26" as="geometry" />
        </mxCell>
        <mxCell id="N3Z6m8R5QKqXO_m7Msgg-4" value="소요시간(단위:분)" style="shape=partialRectangle;top=0;left=0;right=0;bottom=0;html=1;align=left;verticalAlign=top;fillColor=none;spacingLeft=34;spacingRight=4;whiteSpace=wrap;overflow=hidden;rotatable=0;points=[[0,0.5],[1,0.5]];portConstraint=eastwest;dropTarget=0;labelBackgroundColor=none;strokeColor=#788AA3;fontColor=#46495D;" parent="s8aTRHkVXZxyGGqHwzvx-160" vertex="1">
          <mxGeometry y="238" width="200" height="26" as="geometry" />
        </mxCell>
        <mxCell id="N3Z6m8R5QKqXO_m7Msgg-5" value="" style="shape=partialRectangle;top=0;left=0;bottom=0;html=1;fillColor=none;align=left;verticalAlign=top;spacingLeft=4;spacingRight=4;whiteSpace=wrap;overflow=hidden;rotatable=0;points=[];portConstraint=eastwest;part=1;labelBackgroundColor=none;strokeColor=#788AA3;fontColor=#46495D;" parent="N3Z6m8R5QKqXO_m7Msgg-4" vertex="1" connectable="0">
          <mxGeometry width="30" height="26" as="geometry" />
        </mxCell>
        <mxCell id="s8aTRHkVXZxyGGqHwzvx-171" value="정가" style="shape=partialRectangle;top=0;left=0;right=0;bottom=0;html=1;align=left;verticalAlign=top;fillColor=none;spacingLeft=34;spacingRight=4;whiteSpace=wrap;overflow=hidden;rotatable=0;points=[[0,0.5],[1,0.5]];portConstraint=eastwest;dropTarget=0;labelBackgroundColor=none;strokeColor=#788AA3;fontColor=#46495D;" parent="s8aTRHkVXZxyGGqHwzvx-160" vertex="1">
          <mxGeometry y="264" width="200" height="26" as="geometry" />
        </mxCell>
        <mxCell id="s8aTRHkVXZxyGGqHwzvx-172" value="" style="shape=partialRectangle;top=0;left=0;bottom=0;html=1;fillColor=none;align=left;verticalAlign=top;spacingLeft=4;spacingRight=4;whiteSpace=wrap;overflow=hidden;rotatable=0;points=[];portConstraint=eastwest;part=1;labelBackgroundColor=none;strokeColor=#788AA3;fontColor=#46495D;" parent="s8aTRHkVXZxyGGqHwzvx-171" vertex="1" connectable="0">
          <mxGeometry width="30" height="26" as="geometry" />
        </mxCell>
        <mxCell id="-OS_wRwdG3Yrzp-EU8W0-28" value="할인가" style="shape=partialRectangle;top=0;left=0;right=0;bottom=0;html=1;align=left;verticalAlign=top;fillColor=none;spacingLeft=34;spacingRight=4;whiteSpace=wrap;overflow=hidden;rotatable=0;points=[[0,0.5],[1,0.5]];portConstraint=eastwest;dropTarget=0;labelBackgroundColor=none;strokeColor=#788AA3;fontColor=#46495D;" vertex="1" parent="s8aTRHkVXZxyGGqHwzvx-160">
          <mxGeometry y="290" width="200" height="26" as="geometry" />
        </mxCell>
        <mxCell id="-OS_wRwdG3Yrzp-EU8W0-29" value="" style="shape=partialRectangle;top=0;left=0;bottom=0;html=1;fillColor=none;align=left;verticalAlign=top;spacingLeft=4;spacingRight=4;whiteSpace=wrap;overflow=hidden;rotatable=0;points=[];portConstraint=eastwest;part=1;labelBackgroundColor=none;strokeColor=#788AA3;fontColor=#46495D;" vertex="1" connectable="0" parent="-OS_wRwdG3Yrzp-EU8W0-28">
          <mxGeometry width="30" height="26" as="geometry" />
        </mxCell>
        <mxCell id="vIJIQGhLHLDv0Kq7nWMd-3" value="제품 웹페이지 URL" style="shape=partialRectangle;top=0;left=0;right=0;bottom=0;html=1;align=left;verticalAlign=top;fillColor=none;spacingLeft=34;spacingRight=4;whiteSpace=wrap;overflow=hidden;rotatable=0;points=[[0,0.5],[1,0.5]];portConstraint=eastwest;dropTarget=0;labelBackgroundColor=none;strokeColor=#788AA3;fontColor=#46495D;" parent="s8aTRHkVXZxyGGqHwzvx-160" vertex="1">
          <mxGeometry y="316" width="200" height="26" as="geometry" />
        </mxCell>
        <mxCell id="vIJIQGhLHLDv0Kq7nWMd-4" value="" style="shape=partialRectangle;top=0;left=0;bottom=0;html=1;fillColor=none;align=left;verticalAlign=top;spacingLeft=4;spacingRight=4;whiteSpace=wrap;overflow=hidden;rotatable=0;points=[];portConstraint=eastwest;part=1;labelBackgroundColor=none;strokeColor=#788AA3;fontColor=#46495D;" parent="vIJIQGhLHLDv0Kq7nWMd-3" vertex="1" connectable="0">
          <mxGeometry width="30" height="26" as="geometry" />
        </mxCell>
        <mxCell id="s8aTRHkVXZxyGGqHwzvx-219" value="해시태그" style="shape=partialRectangle;top=0;left=0;right=0;bottom=0;html=1;align=left;verticalAlign=top;fillColor=none;spacingLeft=34;spacingRight=4;whiteSpace=wrap;overflow=hidden;rotatable=0;points=[[0,0.5],[1,0.5]];portConstraint=eastwest;dropTarget=0;labelBackgroundColor=none;strokeColor=#788AA3;fontColor=#46495D;" parent="s8aTRHkVXZxyGGqHwzvx-160" vertex="1">
          <mxGeometry y="342" width="200" height="26" as="geometry" />
        </mxCell>
        <mxCell id="s8aTRHkVXZxyGGqHwzvx-220" value="" style="shape=partialRectangle;top=0;left=0;bottom=0;html=1;fillColor=none;align=left;verticalAlign=top;spacingLeft=4;spacingRight=4;whiteSpace=wrap;overflow=hidden;rotatable=0;points=[];portConstraint=eastwest;part=1;labelBackgroundColor=none;strokeColor=#788AA3;fontColor=#46495D;" parent="s8aTRHkVXZxyGGqHwzvx-219" vertex="1" connectable="0">
          <mxGeometry width="30" height="26" as="geometry" />
        </mxCell>
        <mxCell id="s8aTRHkVXZxyGGqHwzvx-217" value="제품 설명" style="shape=partialRectangle;top=0;left=0;right=0;bottom=0;html=1;align=left;verticalAlign=top;fillColor=none;spacingLeft=34;spacingRight=4;whiteSpace=wrap;overflow=hidden;rotatable=0;points=[[0,0.5],[1,0.5]];portConstraint=eastwest;dropTarget=0;labelBackgroundColor=none;strokeColor=#788AA3;fontColor=#46495D;" parent="s8aTRHkVXZxyGGqHwzvx-160" vertex="1">
          <mxGeometry y="368" width="200" height="26" as="geometry" />
        </mxCell>
        <mxCell id="s8aTRHkVXZxyGGqHwzvx-218" value="" style="shape=partialRectangle;top=0;left=0;bottom=0;html=1;fillColor=none;align=left;verticalAlign=top;spacingLeft=4;spacingRight=4;whiteSpace=wrap;overflow=hidden;rotatable=0;points=[];portConstraint=eastwest;part=1;labelBackgroundColor=none;strokeColor=#788AA3;fontColor=#46495D;" parent="s8aTRHkVXZxyGGqHwzvx-217" vertex="1" connectable="0">
          <mxGeometry width="30" height="26" as="geometry" />
        </mxCell>
        <mxCell id="yD0bjzbKo4kkje4cAU-9-47" value="성분ID - 다중옵션" style="shape=partialRectangle;top=0;left=0;right=0;bottom=0;html=1;align=left;verticalAlign=top;fillColor=none;spacingLeft=34;spacingRight=4;whiteSpace=wrap;overflow=hidden;rotatable=0;points=[[0,0.5],[1,0.5]];portConstraint=eastwest;dropTarget=0;labelBackgroundColor=none;strokeColor=#788AA3;fontColor=#46495D;" parent="s8aTRHkVXZxyGGqHwzvx-160" vertex="1">
          <mxGeometry y="394" width="200" height="26" as="geometry" />
        </mxCell>
        <mxCell id="yD0bjzbKo4kkje4cAU-9-48" value="" style="shape=partialRectangle;top=0;left=0;bottom=0;html=1;fillColor=none;align=left;verticalAlign=top;spacingLeft=4;spacingRight=4;whiteSpace=wrap;overflow=hidden;rotatable=0;points=[];portConstraint=eastwest;part=1;labelBackgroundColor=none;strokeColor=#788AA3;fontColor=#46495D;" parent="yD0bjzbKo4kkje4cAU-9-47" vertex="1" connectable="0">
          <mxGeometry width="30" height="26" as="geometry" />
        </mxCell>
        <mxCell id="-OS_wRwdG3Yrzp-EU8W0-21" value="주요 성분" style="shape=partialRectangle;top=0;left=0;right=0;bottom=0;html=1;align=left;verticalAlign=top;fillColor=none;spacingLeft=34;spacingRight=4;whiteSpace=wrap;overflow=hidden;rotatable=0;points=[[0,0.5],[1,0.5]];portConstraint=eastwest;dropTarget=0;labelBackgroundColor=none;strokeColor=#788AA3;fontColor=#46495D;" vertex="1" parent="s8aTRHkVXZxyGGqHwzvx-160">
          <mxGeometry y="420" width="200" height="26" as="geometry" />
        </mxCell>
        <mxCell id="-OS_wRwdG3Yrzp-EU8W0-22" value="" style="shape=partialRectangle;top=0;left=0;bottom=0;html=1;fillColor=none;align=left;verticalAlign=top;spacingLeft=4;spacingRight=4;whiteSpace=wrap;overflow=hidden;rotatable=0;points=[];portConstraint=eastwest;part=1;labelBackgroundColor=none;strokeColor=#788AA3;fontColor=#46495D;" vertex="1" connectable="0" parent="-OS_wRwdG3Yrzp-EU8W0-21">
          <mxGeometry width="30" height="26" as="geometry" />
        </mxCell>
        <mxCell id="s8aTRHkVXZxyGGqHwzvx-173" value="" style="shape=partialRectangle;top=0;left=0;right=0;bottom=0;html=1;align=left;verticalAlign=top;fillColor=none;spacingLeft=34;spacingRight=4;whiteSpace=wrap;overflow=hidden;rotatable=0;points=[[0,0.5],[1,0.5]];portConstraint=eastwest;dropTarget=0;labelBackgroundColor=none;strokeColor=#788AA3;fontColor=#46495D;" parent="s8aTRHkVXZxyGGqHwzvx-160" vertex="1">
          <mxGeometry y="446" width="200" height="10" as="geometry" />
        </mxCell>
        <mxCell id="s8aTRHkVXZxyGGqHwzvx-174" value="" style="shape=partialRectangle;top=0;left=0;bottom=0;html=1;fillColor=none;align=left;verticalAlign=top;spacingLeft=4;spacingRight=4;whiteSpace=wrap;overflow=hidden;rotatable=0;points=[];portConstraint=eastwest;part=1;labelBackgroundColor=none;strokeColor=#788AA3;fontColor=#46495D;" parent="s8aTRHkVXZxyGGqHwzvx-173" vertex="1" connectable="0">
          <mxGeometry width="30" height="10" as="geometry" />
        </mxCell>
        <mxCell id="s8aTRHkVXZxyGGqHwzvx-221" value="화장품 해시태그" style="swimlane;html=1;fontStyle=0;childLayout=stackLayout;horizontal=1;startSize=26;fillColor=#B2C9AB;horizontalStack=0;resizeParent=1;resizeLast=0;collapsible=1;marginBottom=0;swimlaneFillColor=#ffffff;align=center;rounded=0;shadow=0;comic=0;labelBackgroundColor=none;strokeWidth=1;fontFamily=Verdana;fontSize=14;strokeColor=#788AA3;fontColor=#46495D;" parent="1" vertex="1">
          <mxGeometry x="100" y="500" width="160" height="120" as="geometry" />
        </mxCell>
        <mxCell id="s8aTRHkVXZxyGGqHwzvx-222" value="seq" style="shape=partialRectangle;top=0;left=0;right=0;bottom=1;html=1;align=left;verticalAlign=middle;fillColor=none;spacingLeft=34;spacingRight=4;whiteSpace=wrap;overflow=hidden;rotatable=0;points=[[0,0.5],[1,0.5]];portConstraint=eastwest;dropTarget=0;fontStyle=5;labelBackgroundColor=none;strokeColor=#788AA3;fontColor=#46495D;" parent="s8aTRHkVXZxyGGqHwzvx-221" vertex="1">
          <mxGeometry y="26" width="160" height="30" as="geometry" />
        </mxCell>
        <mxCell id="s8aTRHkVXZxyGGqHwzvx-223" value="PK" style="shape=partialRectangle;top=0;left=0;bottom=0;html=1;fillColor=none;align=left;verticalAlign=middle;spacingLeft=4;spacingRight=4;whiteSpace=wrap;overflow=hidden;rotatable=0;points=[];portConstraint=eastwest;part=1;labelBackgroundColor=none;strokeColor=#788AA3;fontColor=#46495D;" parent="s8aTRHkVXZxyGGqHwzvx-222" vertex="1" connectable="0">
          <mxGeometry width="30" height="30" as="geometry" />
        </mxCell>
        <mxCell id="s8aTRHkVXZxyGGqHwzvx-224" value="화장품ID" style="shape=partialRectangle;top=0;left=0;right=0;bottom=0;html=1;align=left;verticalAlign=top;fillColor=none;spacingLeft=34;spacingRight=4;whiteSpace=wrap;overflow=hidden;rotatable=0;points=[[0,0.5],[1,0.5]];portConstraint=eastwest;dropTarget=0;labelBackgroundColor=none;strokeColor=#788AA3;fontColor=#46495D;" parent="s8aTRHkVXZxyGGqHwzvx-221" vertex="1">
          <mxGeometry y="56" width="160" height="26" as="geometry" />
        </mxCell>
        <mxCell id="s8aTRHkVXZxyGGqHwzvx-225" value="FK" style="shape=partialRectangle;top=0;left=0;bottom=0;html=1;fillColor=none;align=left;verticalAlign=top;spacingLeft=4;spacingRight=4;whiteSpace=wrap;overflow=hidden;rotatable=0;points=[];portConstraint=eastwest;part=1;labelBackgroundColor=none;strokeColor=#788AA3;fontColor=#46495D;" parent="s8aTRHkVXZxyGGqHwzvx-224" vertex="1" connectable="0">
          <mxGeometry width="30" height="26" as="geometry" />
        </mxCell>
        <mxCell id="s8aTRHkVXZxyGGqHwzvx-226" value="태그" style="shape=partialRectangle;top=0;left=0;right=0;bottom=0;html=1;align=left;verticalAlign=top;fillColor=none;spacingLeft=34;spacingRight=4;whiteSpace=wrap;overflow=hidden;rotatable=0;points=[[0,0.5],[1,0.5]];portConstraint=eastwest;dropTarget=0;labelBackgroundColor=none;strokeColor=#788AA3;fontColor=#46495D;" parent="s8aTRHkVXZxyGGqHwzvx-221" vertex="1">
          <mxGeometry y="82" width="160" height="26" as="geometry" />
        </mxCell>
        <mxCell id="s8aTRHkVXZxyGGqHwzvx-227" value="" style="shape=partialRectangle;top=0;left=0;bottom=0;html=1;fillColor=none;align=left;verticalAlign=top;spacingLeft=4;spacingRight=4;whiteSpace=wrap;overflow=hidden;rotatable=0;points=[];portConstraint=eastwest;part=1;labelBackgroundColor=none;strokeColor=#788AA3;fontColor=#46495D;" parent="s8aTRHkVXZxyGGqHwzvx-226" vertex="1" connectable="0">
          <mxGeometry width="30" height="26" as="geometry" />
        </mxCell>
        <mxCell id="s8aTRHkVXZxyGGqHwzvx-236" value="" style="edgeStyle=entityRelationEdgeStyle;fontSize=12;html=1;endArrow=ERzeroToMany;startArrow=ERzeroToOne;rounded=0;strokeColor=#788AA3;fontColor=#46495D;fillColor=#B2C9AB;" parent="1" source="s8aTRHkVXZxyGGqHwzvx-161" target="s8aTRHkVXZxyGGqHwzvx-224" edge="1">
          <mxGeometry width="100" height="100" relative="1" as="geometry">
            <mxPoint x="220" y="380" as="sourcePoint" />
            <mxPoint x="320" y="280" as="targetPoint" />
          </mxGeometry>
        </mxCell>
        <mxCell id="s8aTRHkVXZxyGGqHwzvx-302" value="부모코드" style="swimlane;html=1;fontStyle=0;childLayout=stackLayout;horizontal=1;startSize=26;fillColor=#B2C9AB;horizontalStack=0;resizeParent=1;resizeLast=0;collapsible=1;marginBottom=0;swimlaneFillColor=#ffffff;align=center;rounded=0;shadow=0;comic=0;labelBackgroundColor=none;strokeWidth=1;fontFamily=Verdana;fontSize=14;strokeColor=#788AA3;fontColor=#46495D;" parent="1" vertex="1">
          <mxGeometry x="-440" y="50" width="160" height="144" as="geometry" />
        </mxCell>
        <mxCell id="s8aTRHkVXZxyGGqHwzvx-303" value="부모 코드" style="shape=partialRectangle;top=0;left=0;right=0;bottom=1;html=1;align=left;verticalAlign=middle;fillColor=none;spacingLeft=34;spacingRight=4;whiteSpace=wrap;overflow=hidden;rotatable=0;points=[[0,0.5],[1,0.5]];portConstraint=eastwest;dropTarget=0;fontStyle=5;labelBackgroundColor=none;strokeColor=#788AA3;fontColor=#46495D;" parent="s8aTRHkVXZxyGGqHwzvx-302" vertex="1">
          <mxGeometry y="26" width="160" height="30" as="geometry" />
        </mxCell>
        <mxCell id="s8aTRHkVXZxyGGqHwzvx-304" value="PK" style="shape=partialRectangle;top=0;left=0;bottom=0;html=1;fillColor=none;align=left;verticalAlign=middle;spacingLeft=4;spacingRight=4;whiteSpace=wrap;overflow=hidden;rotatable=0;points=[];portConstraint=eastwest;part=1;labelBackgroundColor=none;strokeColor=#788AA3;fontColor=#46495D;" parent="s8aTRHkVXZxyGGqHwzvx-303" vertex="1" connectable="0">
          <mxGeometry width="30" height="30" as="geometry" />
        </mxCell>
        <mxCell id="s8aTRHkVXZxyGGqHwzvx-305" value="부모 코드명" style="shape=partialRectangle;top=0;left=0;right=0;bottom=0;html=1;align=left;verticalAlign=top;fillColor=none;spacingLeft=34;spacingRight=4;whiteSpace=wrap;overflow=hidden;rotatable=0;points=[[0,0.5],[1,0.5]];portConstraint=eastwest;dropTarget=0;labelBackgroundColor=none;strokeColor=#788AA3;fontColor=#46495D;" parent="s8aTRHkVXZxyGGqHwzvx-302" vertex="1">
          <mxGeometry y="56" width="160" height="26" as="geometry" />
        </mxCell>
        <mxCell id="s8aTRHkVXZxyGGqHwzvx-306" value="" style="shape=partialRectangle;top=0;left=0;bottom=0;html=1;fillColor=none;align=left;verticalAlign=top;spacingLeft=4;spacingRight=4;whiteSpace=wrap;overflow=hidden;rotatable=0;points=[];portConstraint=eastwest;part=1;labelBackgroundColor=none;strokeColor=#788AA3;fontColor=#46495D;" parent="s8aTRHkVXZxyGGqHwzvx-305" vertex="1" connectable="0">
          <mxGeometry width="30" height="26" as="geometry" />
        </mxCell>
        <mxCell id="s8aTRHkVXZxyGGqHwzvx-309" value="부모 코드 설명" style="shape=partialRectangle;top=0;left=0;right=0;bottom=0;html=1;align=left;verticalAlign=top;fillColor=none;spacingLeft=34;spacingRight=4;whiteSpace=wrap;overflow=hidden;rotatable=0;points=[[0,0.5],[1,0.5]];portConstraint=eastwest;dropTarget=0;labelBackgroundColor=none;strokeColor=#788AA3;fontColor=#46495D;" parent="s8aTRHkVXZxyGGqHwzvx-302" vertex="1">
          <mxGeometry y="82" width="160" height="26" as="geometry" />
        </mxCell>
        <mxCell id="s8aTRHkVXZxyGGqHwzvx-310" value="" style="shape=partialRectangle;top=0;left=0;bottom=0;html=1;fillColor=none;align=left;verticalAlign=top;spacingLeft=4;spacingRight=4;whiteSpace=wrap;overflow=hidden;rotatable=0;points=[];portConstraint=eastwest;part=1;labelBackgroundColor=none;strokeColor=#788AA3;fontColor=#46495D;" parent="s8aTRHkVXZxyGGqHwzvx-309" vertex="1" connectable="0">
          <mxGeometry width="30" height="26" as="geometry" />
        </mxCell>
        <mxCell id="s8aTRHkVXZxyGGqHwzvx-311" value="분류 코드" style="shape=partialRectangle;top=0;left=0;right=0;bottom=0;html=1;align=left;verticalAlign=top;fillColor=none;spacingLeft=34;spacingRight=4;whiteSpace=wrap;overflow=hidden;rotatable=0;points=[[0,0.5],[1,0.5]];portConstraint=eastwest;dropTarget=0;labelBackgroundColor=none;strokeColor=#788AA3;fontColor=#46495D;" parent="s8aTRHkVXZxyGGqHwzvx-302" vertex="1">
          <mxGeometry y="108" width="160" height="26" as="geometry" />
        </mxCell>
        <mxCell id="s8aTRHkVXZxyGGqHwzvx-312" value="FK" style="shape=partialRectangle;top=0;left=0;bottom=0;html=1;fillColor=none;align=left;verticalAlign=top;spacingLeft=4;spacingRight=4;whiteSpace=wrap;overflow=hidden;rotatable=0;points=[];portConstraint=eastwest;part=1;labelBackgroundColor=none;strokeColor=#788AA3;fontColor=#46495D;" parent="s8aTRHkVXZxyGGqHwzvx-311" vertex="1" connectable="0">
          <mxGeometry width="30" height="26" as="geometry" />
        </mxCell>
        <mxCell id="s8aTRHkVXZxyGGqHwzvx-315" value="" style="shape=partialRectangle;top=0;left=0;right=0;bottom=0;html=1;align=left;verticalAlign=top;fillColor=none;spacingLeft=34;spacingRight=4;whiteSpace=wrap;overflow=hidden;rotatable=0;points=[[0,0.5],[1,0.5]];portConstraint=eastwest;dropTarget=0;labelBackgroundColor=none;strokeColor=#788AA3;fontColor=#46495D;" parent="s8aTRHkVXZxyGGqHwzvx-302" vertex="1">
          <mxGeometry y="134" width="160" height="10" as="geometry" />
        </mxCell>
        <mxCell id="s8aTRHkVXZxyGGqHwzvx-316" value="" style="shape=partialRectangle;top=0;left=0;bottom=0;html=1;fillColor=none;align=left;verticalAlign=top;spacingLeft=4;spacingRight=4;whiteSpace=wrap;overflow=hidden;rotatable=0;points=[];portConstraint=eastwest;part=1;labelBackgroundColor=none;strokeColor=#788AA3;fontColor=#46495D;" parent="s8aTRHkVXZxyGGqHwzvx-315" vertex="1" connectable="0">
          <mxGeometry width="30" height="10" as="geometry" />
        </mxCell>
        <mxCell id="s8aTRHkVXZxyGGqHwzvx-317" value="코드" style="swimlane;html=1;fontStyle=0;childLayout=stackLayout;horizontal=1;startSize=26;fillColor=#B2C9AB;horizontalStack=0;resizeParent=1;resizeLast=0;collapsible=1;marginBottom=0;swimlaneFillColor=#ffffff;align=center;rounded=0;shadow=0;comic=0;labelBackgroundColor=none;strokeWidth=1;fontFamily=Verdana;fontSize=14;strokeColor=#788AA3;fontColor=#46495D;" parent="1" vertex="1">
          <mxGeometry x="-210" y="50" width="160" height="170" as="geometry" />
        </mxCell>
        <mxCell id="s8aTRHkVXZxyGGqHwzvx-318" value="코드" style="shape=partialRectangle;top=0;left=0;right=0;bottom=1;html=1;align=left;verticalAlign=middle;fillColor=none;spacingLeft=34;spacingRight=4;whiteSpace=wrap;overflow=hidden;rotatable=0;points=[[0,0.5],[1,0.5]];portConstraint=eastwest;dropTarget=0;fontStyle=5;labelBackgroundColor=none;strokeColor=#788AA3;fontColor=#46495D;" parent="s8aTRHkVXZxyGGqHwzvx-317" vertex="1">
          <mxGeometry y="26" width="160" height="30" as="geometry" />
        </mxCell>
        <mxCell id="s8aTRHkVXZxyGGqHwzvx-319" value="PK" style="shape=partialRectangle;top=0;left=0;bottom=0;html=1;fillColor=none;align=left;verticalAlign=middle;spacingLeft=4;spacingRight=4;whiteSpace=wrap;overflow=hidden;rotatable=0;points=[];portConstraint=eastwest;part=1;labelBackgroundColor=none;strokeColor=#788AA3;fontColor=#46495D;" parent="s8aTRHkVXZxyGGqHwzvx-318" vertex="1" connectable="0">
          <mxGeometry width="30" height="30" as="geometry" />
        </mxCell>
        <mxCell id="s8aTRHkVXZxyGGqHwzvx-320" value="부모 코드" style="shape=partialRectangle;top=0;left=0;right=0;bottom=0;html=1;align=left;verticalAlign=top;fillColor=none;spacingLeft=34;spacingRight=4;whiteSpace=wrap;overflow=hidden;rotatable=0;points=[[0,0.5],[1,0.5]];portConstraint=eastwest;dropTarget=0;labelBackgroundColor=none;strokeColor=#788AA3;fontColor=#46495D;" parent="s8aTRHkVXZxyGGqHwzvx-317" vertex="1">
          <mxGeometry y="56" width="160" height="26" as="geometry" />
        </mxCell>
        <mxCell id="s8aTRHkVXZxyGGqHwzvx-321" value="FK" style="shape=partialRectangle;top=0;left=0;bottom=0;html=1;fillColor=none;align=left;verticalAlign=top;spacingLeft=4;spacingRight=4;whiteSpace=wrap;overflow=hidden;rotatable=0;points=[];portConstraint=eastwest;part=1;labelBackgroundColor=none;strokeColor=#788AA3;fontColor=#46495D;" parent="s8aTRHkVXZxyGGqHwzvx-320" vertex="1" connectable="0">
          <mxGeometry width="30" height="26" as="geometry" />
        </mxCell>
        <mxCell id="s8aTRHkVXZxyGGqHwzvx-322" value="코드명" style="shape=partialRectangle;top=0;left=0;right=0;bottom=0;html=1;align=left;verticalAlign=top;fillColor=none;spacingLeft=34;spacingRight=4;whiteSpace=wrap;overflow=hidden;rotatable=0;points=[[0,0.5],[1,0.5]];portConstraint=eastwest;dropTarget=0;labelBackgroundColor=none;strokeColor=#788AA3;fontColor=#46495D;" parent="s8aTRHkVXZxyGGqHwzvx-317" vertex="1">
          <mxGeometry y="82" width="160" height="26" as="geometry" />
        </mxCell>
        <mxCell id="s8aTRHkVXZxyGGqHwzvx-323" value="" style="shape=partialRectangle;top=0;left=0;bottom=0;html=1;fillColor=none;align=left;verticalAlign=top;spacingLeft=4;spacingRight=4;whiteSpace=wrap;overflow=hidden;rotatable=0;points=[];portConstraint=eastwest;part=1;labelBackgroundColor=none;strokeColor=#788AA3;fontColor=#46495D;" parent="s8aTRHkVXZxyGGqHwzvx-322" vertex="1" connectable="0">
          <mxGeometry width="30" height="26" as="geometry" />
        </mxCell>
        <mxCell id="s8aTRHkVXZxyGGqHwzvx-324" value="코드 설명" style="shape=partialRectangle;top=0;left=0;right=0;bottom=0;html=1;align=left;verticalAlign=top;fillColor=none;spacingLeft=34;spacingRight=4;whiteSpace=wrap;overflow=hidden;rotatable=0;points=[[0,0.5],[1,0.5]];portConstraint=eastwest;dropTarget=0;labelBackgroundColor=none;strokeColor=#788AA3;fontColor=#46495D;" parent="s8aTRHkVXZxyGGqHwzvx-317" vertex="1">
          <mxGeometry y="108" width="160" height="26" as="geometry" />
        </mxCell>
        <mxCell id="s8aTRHkVXZxyGGqHwzvx-325" value="" style="shape=partialRectangle;top=0;left=0;bottom=0;html=1;fillColor=none;align=left;verticalAlign=top;spacingLeft=4;spacingRight=4;whiteSpace=wrap;overflow=hidden;rotatable=0;points=[];portConstraint=eastwest;part=1;labelBackgroundColor=none;strokeColor=#788AA3;fontColor=#46495D;" parent="s8aTRHkVXZxyGGqHwzvx-324" vertex="1" connectable="0">
          <mxGeometry width="30" height="26" as="geometry" />
        </mxCell>
        <mxCell id="s8aTRHkVXZxyGGqHwzvx-331" value="코드 정렬 순서" style="shape=partialRectangle;top=0;left=0;right=0;bottom=0;html=1;align=left;verticalAlign=top;fillColor=none;spacingLeft=34;spacingRight=4;whiteSpace=wrap;overflow=hidden;rotatable=0;points=[[0,0.5],[1,0.5]];portConstraint=eastwest;dropTarget=0;labelBackgroundColor=none;strokeColor=#788AA3;fontColor=#46495D;" parent="s8aTRHkVXZxyGGqHwzvx-317" vertex="1">
          <mxGeometry y="134" width="160" height="26" as="geometry" />
        </mxCell>
        <mxCell id="s8aTRHkVXZxyGGqHwzvx-332" value="" style="shape=partialRectangle;top=0;left=0;bottom=0;html=1;fillColor=none;align=left;verticalAlign=top;spacingLeft=4;spacingRight=4;whiteSpace=wrap;overflow=hidden;rotatable=0;points=[];portConstraint=eastwest;part=1;labelBackgroundColor=none;strokeColor=#788AA3;fontColor=#46495D;" parent="s8aTRHkVXZxyGGqHwzvx-331" vertex="1" connectable="0">
          <mxGeometry width="30" height="26" as="geometry" />
        </mxCell>
        <mxCell id="s8aTRHkVXZxyGGqHwzvx-326" value="" style="shape=partialRectangle;top=0;left=0;right=0;bottom=0;html=1;align=left;verticalAlign=top;fillColor=none;spacingLeft=34;spacingRight=4;whiteSpace=wrap;overflow=hidden;rotatable=0;points=[[0,0.5],[1,0.5]];portConstraint=eastwest;dropTarget=0;labelBackgroundColor=none;strokeColor=#788AA3;fontColor=#46495D;" parent="s8aTRHkVXZxyGGqHwzvx-317" vertex="1">
          <mxGeometry y="160" width="160" height="10" as="geometry" />
        </mxCell>
        <mxCell id="s8aTRHkVXZxyGGqHwzvx-327" value="" style="shape=partialRectangle;top=0;left=0;bottom=0;html=1;fillColor=none;align=left;verticalAlign=top;spacingLeft=4;spacingRight=4;whiteSpace=wrap;overflow=hidden;rotatable=0;points=[];portConstraint=eastwest;part=1;labelBackgroundColor=none;strokeColor=#788AA3;fontColor=#46495D;" parent="s8aTRHkVXZxyGGqHwzvx-326" vertex="1" connectable="0">
          <mxGeometry width="30" height="10" as="geometry" />
        </mxCell>
        <mxCell id="s8aTRHkVXZxyGGqHwzvx-330" value="" style="edgeStyle=entityRelationEdgeStyle;fontSize=12;html=1;endArrow=ERzeroToMany;startArrow=ERmandOne;rounded=0;strokeColor=#788AA3;fontColor=#46495D;fillColor=#B2C9AB;" parent="1" source="s8aTRHkVXZxyGGqHwzvx-303" target="s8aTRHkVXZxyGGqHwzvx-320" edge="1">
          <mxGeometry width="100" height="100" relative="1" as="geometry">
            <mxPoint x="-210" y="460" as="sourcePoint" />
            <mxPoint x="-110" y="360" as="targetPoint" />
          </mxGeometry>
        </mxCell>
        <mxCell id="s8aTRHkVXZxyGGqHwzvx-335" value="&lt;div&gt;&lt;font&gt;&lt;br&gt;&lt;/font&gt;&lt;/div&gt;&lt;ul&gt;&lt;li&gt;&lt;font&gt;코드관리 방식은 Enum, DB 중 선택&lt;/font&gt;&lt;/li&gt;&lt;li&gt;&lt;font&gt;DB 방식 사용시 위 부모코드, 코드 테이블 활용&lt;br&gt;&lt;/font&gt;&lt;/li&gt;&lt;li&gt;&quot;성별&quot; 과 같이 향후 확장 및 &lt;u style=&quot;&quot;&gt;&lt;font color=&quot;#ff6666&quot;&gt;변경 확률이 적은 항목에 대해서는 Enum 으로 관리 권장&lt;/font&gt;&lt;/u&gt;&lt;/li&gt;&lt;li&gt;&lt;font&gt;활용 예는 아래와 같음&lt;br&gt;ex)&amp;nbsp; 시술가능대상자 테이블의 &quot;피부타입 옵션1&quot; 사용 예시&lt;br&gt;step1. 분류코드 등록 -&amp;gt; cl_code=&#39;tratment&#39;, cl_code_nm=&#39;시술&#39;&lt;br&gt;step2. 부모코드 등록 -&amp;gt; p_code=&#39;skin_type&#39;, p_code_nm=&#39;피부타입&#39;&lt;br&gt;step3. 코드 등록&amp;nbsp;&lt;/font&gt;&lt;br&gt;&amp;nbsp; &amp;nbsp; -&amp;gt;&amp;nbsp;p_code=&#39;skin_type&#39;,&amp;nbsp;code=&#39;dry&#39;,&amp;nbsp;code_nm=&#39;건조&#39;&lt;br&gt;&amp;nbsp; &amp;nbsp; -&amp;gt;&amp;nbsp;p_code=&#39;skin_type&#39;,&amp;nbsp;code=&#39;normal&#39;,&amp;nbsp;code_nm=&#39;보통&#39;&lt;br&gt;&lt;br&gt;&lt;font color=&quot;#ff6666&quot;&gt;※분류코드 테이블은 필수 사항은 아니지만&lt;br&gt;사용 시 화장품,시술 등과 같이 도메인별 사용 코드 관리가 가능하므로 확장 및 유지관리에 용이 함&lt;/font&gt;&lt;/li&gt;&lt;/ul&gt;" style="text;html=1;whiteSpace=wrap;verticalAlign=middle;overflow=hidden;labelBackgroundColor=default;" parent="1" vertex="1">
          <mxGeometry x="-670" y="230" width="540" height="260" as="geometry" />
        </mxCell>
        <mxCell id="s8aTRHkVXZxyGGqHwzvx-336" value="분류코드" style="swimlane;html=1;fontStyle=0;childLayout=stackLayout;horizontal=1;startSize=26;fillColor=#B2C9AB;horizontalStack=0;resizeParent=1;resizeLast=0;collapsible=1;marginBottom=0;swimlaneFillColor=#ffffff;align=center;rounded=0;shadow=0;comic=0;labelBackgroundColor=none;strokeWidth=1;fontFamily=Verdana;fontSize=14;strokeColor=#788AA3;fontColor=#46495D;" parent="1" vertex="1">
          <mxGeometry x="-670" y="50" width="160" height="144" as="geometry" />
        </mxCell>
        <mxCell id="s8aTRHkVXZxyGGqHwzvx-337" value="분류 코드" style="shape=partialRectangle;top=0;left=0;right=0;bottom=1;html=1;align=left;verticalAlign=middle;fillColor=none;spacingLeft=34;spacingRight=4;whiteSpace=wrap;overflow=hidden;rotatable=0;points=[[0,0.5],[1,0.5]];portConstraint=eastwest;dropTarget=0;fontStyle=5;labelBackgroundColor=none;strokeColor=#788AA3;fontColor=#46495D;" parent="s8aTRHkVXZxyGGqHwzvx-336" vertex="1">
          <mxGeometry y="26" width="160" height="30" as="geometry" />
        </mxCell>
        <mxCell id="s8aTRHkVXZxyGGqHwzvx-338" value="PK" style="shape=partialRectangle;top=0;left=0;bottom=0;html=1;fillColor=none;align=left;verticalAlign=middle;spacingLeft=4;spacingRight=4;whiteSpace=wrap;overflow=hidden;rotatable=0;points=[];portConstraint=eastwest;part=1;labelBackgroundColor=none;strokeColor=#788AA3;fontColor=#46495D;" parent="s8aTRHkVXZxyGGqHwzvx-337" vertex="1" connectable="0">
          <mxGeometry width="30" height="30" as="geometry" />
        </mxCell>
        <mxCell id="s8aTRHkVXZxyGGqHwzvx-339" value="분류 코드명" style="shape=partialRectangle;top=0;left=0;right=0;bottom=0;html=1;align=left;verticalAlign=top;fillColor=none;spacingLeft=34;spacingRight=4;whiteSpace=wrap;overflow=hidden;rotatable=0;points=[[0,0.5],[1,0.5]];portConstraint=eastwest;dropTarget=0;labelBackgroundColor=none;strokeColor=#788AA3;fontColor=#46495D;" parent="s8aTRHkVXZxyGGqHwzvx-336" vertex="1">
          <mxGeometry y="56" width="160" height="26" as="geometry" />
        </mxCell>
        <mxCell id="s8aTRHkVXZxyGGqHwzvx-340" value="" style="shape=partialRectangle;top=0;left=0;bottom=0;html=1;fillColor=none;align=left;verticalAlign=top;spacingLeft=4;spacingRight=4;whiteSpace=wrap;overflow=hidden;rotatable=0;points=[];portConstraint=eastwest;part=1;labelBackgroundColor=none;strokeColor=#788AA3;fontColor=#46495D;" parent="s8aTRHkVXZxyGGqHwzvx-339" vertex="1" connectable="0">
          <mxGeometry width="30" height="26" as="geometry" />
        </mxCell>
        <mxCell id="s8aTRHkVXZxyGGqHwzvx-341" value="분류 코드 설명" style="shape=partialRectangle;top=0;left=0;right=0;bottom=0;html=1;align=left;verticalAlign=top;fillColor=none;spacingLeft=34;spacingRight=4;whiteSpace=wrap;overflow=hidden;rotatable=0;points=[[0,0.5],[1,0.5]];portConstraint=eastwest;dropTarget=0;labelBackgroundColor=none;strokeColor=#788AA3;fontColor=#46495D;" parent="s8aTRHkVXZxyGGqHwzvx-336" vertex="1">
          <mxGeometry y="82" width="160" height="26" as="geometry" />
        </mxCell>
        <mxCell id="s8aTRHkVXZxyGGqHwzvx-342" value="" style="shape=partialRectangle;top=0;left=0;bottom=0;html=1;fillColor=none;align=left;verticalAlign=top;spacingLeft=4;spacingRight=4;whiteSpace=wrap;overflow=hidden;rotatable=0;points=[];portConstraint=eastwest;part=1;labelBackgroundColor=none;strokeColor=#788AA3;fontColor=#46495D;" parent="s8aTRHkVXZxyGGqHwzvx-341" vertex="1" connectable="0">
          <mxGeometry width="30" height="26" as="geometry" />
        </mxCell>
        <mxCell id="s8aTRHkVXZxyGGqHwzvx-343" value="" style="shape=partialRectangle;top=0;left=0;right=0;bottom=0;html=1;align=left;verticalAlign=top;fillColor=none;spacingLeft=34;spacingRight=4;whiteSpace=wrap;overflow=hidden;rotatable=0;points=[[0,0.5],[1,0.5]];portConstraint=eastwest;dropTarget=0;labelBackgroundColor=none;strokeColor=#788AA3;fontColor=#46495D;" parent="s8aTRHkVXZxyGGqHwzvx-336" vertex="1">
          <mxGeometry y="108" width="160" height="26" as="geometry" />
        </mxCell>
        <mxCell id="s8aTRHkVXZxyGGqHwzvx-344" value="" style="shape=partialRectangle;top=0;left=0;bottom=0;html=1;fillColor=none;align=left;verticalAlign=top;spacingLeft=4;spacingRight=4;whiteSpace=wrap;overflow=hidden;rotatable=0;points=[];portConstraint=eastwest;part=1;labelBackgroundColor=none;strokeColor=#788AA3;fontColor=#46495D;" parent="s8aTRHkVXZxyGGqHwzvx-343" vertex="1" connectable="0">
          <mxGeometry width="30" height="26" as="geometry" />
        </mxCell>
        <mxCell id="s8aTRHkVXZxyGGqHwzvx-345" value="" style="shape=partialRectangle;top=0;left=0;right=0;bottom=0;html=1;align=left;verticalAlign=top;fillColor=none;spacingLeft=34;spacingRight=4;whiteSpace=wrap;overflow=hidden;rotatable=0;points=[[0,0.5],[1,0.5]];portConstraint=eastwest;dropTarget=0;labelBackgroundColor=none;strokeColor=#788AA3;fontColor=#46495D;" parent="s8aTRHkVXZxyGGqHwzvx-336" vertex="1">
          <mxGeometry y="134" width="160" height="10" as="geometry" />
        </mxCell>
        <mxCell id="s8aTRHkVXZxyGGqHwzvx-346" value="" style="shape=partialRectangle;top=0;left=0;bottom=0;html=1;fillColor=none;align=left;verticalAlign=top;spacingLeft=4;spacingRight=4;whiteSpace=wrap;overflow=hidden;rotatable=0;points=[];portConstraint=eastwest;part=1;labelBackgroundColor=none;strokeColor=#788AA3;fontColor=#46495D;" parent="s8aTRHkVXZxyGGqHwzvx-345" vertex="1" connectable="0">
          <mxGeometry width="30" height="10" as="geometry" />
        </mxCell>
        <mxCell id="s8aTRHkVXZxyGGqHwzvx-347" value="" style="edgeStyle=entityRelationEdgeStyle;fontSize=12;html=1;endArrow=ERzeroToMany;startArrow=ERmandOne;rounded=0;strokeColor=#788AA3;fontColor=#46495D;fillColor=#B2C9AB;exitX=1;exitY=0.5;exitDx=0;exitDy=0;entryX=-0.015;entryY=0.052;entryDx=0;entryDy=0;entryPerimeter=0;" parent="1" source="s8aTRHkVXZxyGGqHwzvx-337" target="s8aTRHkVXZxyGGqHwzvx-311" edge="1">
          <mxGeometry width="100" height="100" relative="1" as="geometry">
            <mxPoint x="-270" y="101" as="sourcePoint" />
            <mxPoint x="-200" y="129" as="targetPoint" />
          </mxGeometry>
        </mxCell>
        <mxCell id="s8aTRHkVXZxyGGqHwzvx-348" value="&lt;div&gt;&lt;font&gt;&lt;br&gt;&lt;/font&gt;&lt;/div&gt;&lt;ul&gt;&lt;li&gt;시술가능/추천대상자 테이블의&lt;font color=&quot;#ff6666&quot;&gt;&amp;nbsp;&quot;피부타입&quot; 코드는 Enum 으로 관리&lt;/font&gt;&lt;/li&gt;&lt;li&gt;시술가능/추천대상자 테이블 &lt;font color=&quot;#ff6666&quot;&gt;Insert/Update 시 피부타입 데이터 검증&lt;br&gt;&lt;/font&gt;1. 피부타입의 값이 Enum으로 관리하고 있는 코드 목록에 존재하는지&lt;br&gt;2. 피부타입 옵션1~3 선택값에 대해 조합규칙으로 산출된 값의 목록과 일치하는지&amp;nbsp;&lt;/li&gt;&lt;/ul&gt;" style="text;html=1;whiteSpace=wrap;verticalAlign=middle;overflow=hidden;labelBackgroundColor=default;fillColor=default;" parent="1" vertex="1">
          <mxGeometry x="440" y="-118" width="650" height="130" as="geometry" />
        </mxCell>
        <mxCell id="suNme6-eA1xpTHc4A4N6-63" value="화장품 카테고리" style="swimlane;html=1;fontStyle=0;childLayout=stackLayout;horizontal=1;startSize=26;fillColor=#B2C9AB;horizontalStack=0;resizeParent=1;resizeLast=0;collapsible=1;marginBottom=0;swimlaneFillColor=#ffffff;align=center;rounded=0;shadow=0;comic=0;labelBackgroundColor=none;strokeWidth=1;fontFamily=Verdana;fontSize=14;strokeColor=#788AA3;fontColor=#46495D;" parent="1" vertex="1">
          <mxGeometry x="80" y="-384" width="160" height="100" as="geometry" />
        </mxCell>
        <mxCell id="suNme6-eA1xpTHc4A4N6-64" value="카테고리ID" style="shape=partialRectangle;top=0;left=0;right=0;bottom=1;html=1;align=left;verticalAlign=middle;fillColor=none;spacingLeft=34;spacingRight=4;whiteSpace=wrap;overflow=hidden;rotatable=0;points=[[0,0.5],[1,0.5]];portConstraint=eastwest;dropTarget=0;fontStyle=5;labelBackgroundColor=none;strokeColor=#788AA3;fontColor=#46495D;" parent="suNme6-eA1xpTHc4A4N6-63" vertex="1">
          <mxGeometry y="26" width="160" height="30" as="geometry" />
        </mxCell>
        <mxCell id="suNme6-eA1xpTHc4A4N6-65" value="PK" style="shape=partialRectangle;top=0;left=0;bottom=0;html=1;fillColor=none;align=left;verticalAlign=middle;spacingLeft=4;spacingRight=4;whiteSpace=wrap;overflow=hidden;rotatable=0;points=[];portConstraint=eastwest;part=1;labelBackgroundColor=none;strokeColor=#788AA3;fontColor=#46495D;" parent="suNme6-eA1xpTHc4A4N6-64" vertex="1" connectable="0">
          <mxGeometry width="30" height="30" as="geometry" />
        </mxCell>
        <mxCell id="suNme6-eA1xpTHc4A4N6-68" value="카테고리명" style="shape=partialRectangle;top=0;left=0;right=0;bottom=0;html=1;align=left;verticalAlign=top;fillColor=none;spacingLeft=34;spacingRight=4;whiteSpace=wrap;overflow=hidden;rotatable=0;points=[[0,0.5],[1,0.5]];portConstraint=eastwest;dropTarget=0;labelBackgroundColor=none;strokeColor=#788AA3;fontColor=#46495D;" parent="suNme6-eA1xpTHc4A4N6-63" vertex="1">
          <mxGeometry y="56" width="160" height="26" as="geometry" />
        </mxCell>
        <mxCell id="suNme6-eA1xpTHc4A4N6-69" value="" style="shape=partialRectangle;top=0;left=0;bottom=0;html=1;fillColor=none;align=left;verticalAlign=top;spacingLeft=4;spacingRight=4;whiteSpace=wrap;overflow=hidden;rotatable=0;points=[];portConstraint=eastwest;part=1;labelBackgroundColor=none;strokeColor=#788AA3;fontColor=#46495D;" parent="suNme6-eA1xpTHc4A4N6-68" vertex="1" connectable="0">
          <mxGeometry width="30" height="26" as="geometry" />
        </mxCell>
        <mxCell id="suNme6-eA1xpTHc4A4N6-80" value="" style="shape=partialRectangle;top=0;left=0;right=0;bottom=0;html=1;align=left;verticalAlign=top;fillColor=none;spacingLeft=34;spacingRight=4;whiteSpace=wrap;overflow=hidden;rotatable=0;points=[[0,0.5],[1,0.5]];portConstraint=eastwest;dropTarget=0;labelBackgroundColor=none;strokeColor=#788AA3;fontColor=#46495D;" parent="suNme6-eA1xpTHc4A4N6-63" vertex="1">
          <mxGeometry y="82" width="160" height="10" as="geometry" />
        </mxCell>
        <mxCell id="suNme6-eA1xpTHc4A4N6-81" value="" style="shape=partialRectangle;top=0;left=0;bottom=0;html=1;fillColor=none;align=left;verticalAlign=top;spacingLeft=4;spacingRight=4;whiteSpace=wrap;overflow=hidden;rotatable=0;points=[];portConstraint=eastwest;part=1;labelBackgroundColor=none;strokeColor=#788AA3;fontColor=#46495D;" parent="suNme6-eA1xpTHc4A4N6-80" vertex="1" connectable="0">
          <mxGeometry width="30" height="10" as="geometry" />
        </mxCell>
        <mxCell id="suNme6-eA1xpTHc4A4N6-82" value="화장품 서브카테고리" style="swimlane;html=1;fontStyle=0;childLayout=stackLayout;horizontal=1;startSize=26;fillColor=#B2C9AB;horizontalStack=0;resizeParent=1;resizeLast=0;collapsible=1;marginBottom=0;swimlaneFillColor=#ffffff;align=center;rounded=0;shadow=0;comic=0;labelBackgroundColor=none;strokeWidth=1;fontFamily=Verdana;fontSize=14;strokeColor=#788AA3;fontColor=#46495D;" parent="1" vertex="1">
          <mxGeometry x="300" y="-390" width="160" height="118" as="geometry" />
        </mxCell>
        <mxCell id="suNme6-eA1xpTHc4A4N6-83" value="서브카테고리ID" style="shape=partialRectangle;top=0;left=0;right=0;bottom=1;html=1;align=left;verticalAlign=middle;fillColor=none;spacingLeft=34;spacingRight=4;whiteSpace=wrap;overflow=hidden;rotatable=0;points=[[0,0.5],[1,0.5]];portConstraint=eastwest;dropTarget=0;fontStyle=5;labelBackgroundColor=none;strokeColor=#788AA3;fontColor=#46495D;" parent="suNme6-eA1xpTHc4A4N6-82" vertex="1">
          <mxGeometry y="26" width="160" height="30" as="geometry" />
        </mxCell>
        <mxCell id="suNme6-eA1xpTHc4A4N6-84" value="PK" style="shape=partialRectangle;top=0;left=0;bottom=0;html=1;fillColor=none;align=left;verticalAlign=middle;spacingLeft=4;spacingRight=4;whiteSpace=wrap;overflow=hidden;rotatable=0;points=[];portConstraint=eastwest;part=1;labelBackgroundColor=none;strokeColor=#788AA3;fontColor=#46495D;" parent="suNme6-eA1xpTHc4A4N6-83" vertex="1" connectable="0">
          <mxGeometry width="30" height="30" as="geometry" />
        </mxCell>
        <mxCell id="suNme6-eA1xpTHc4A4N6-95" value="서브카테고리명" style="shape=partialRectangle;top=0;left=0;right=0;bottom=0;html=1;align=left;verticalAlign=top;fillColor=none;spacingLeft=34;spacingRight=4;whiteSpace=wrap;overflow=hidden;rotatable=0;points=[[0,0.5],[1,0.5]];portConstraint=eastwest;dropTarget=0;labelBackgroundColor=none;strokeColor=#788AA3;fontColor=#46495D;" parent="suNme6-eA1xpTHc4A4N6-82" vertex="1">
          <mxGeometry y="56" width="160" height="26" as="geometry" />
        </mxCell>
        <mxCell id="suNme6-eA1xpTHc4A4N6-96" value="" style="shape=partialRectangle;top=0;left=0;bottom=0;html=1;fillColor=none;align=left;verticalAlign=top;spacingLeft=4;spacingRight=4;whiteSpace=wrap;overflow=hidden;rotatable=0;points=[];portConstraint=eastwest;part=1;labelBackgroundColor=none;strokeColor=#788AA3;fontColor=#46495D;" parent="suNme6-eA1xpTHc4A4N6-95" vertex="1" connectable="0">
          <mxGeometry width="30" height="26" as="geometry" />
        </mxCell>
        <mxCell id="suNme6-eA1xpTHc4A4N6-85" value="카테고리ID" style="shape=partialRectangle;top=0;left=0;right=0;bottom=0;html=1;align=left;verticalAlign=top;fillColor=none;spacingLeft=34;spacingRight=4;whiteSpace=wrap;overflow=hidden;rotatable=0;points=[[0,0.5],[1,0.5]];portConstraint=eastwest;dropTarget=0;labelBackgroundColor=none;strokeColor=#788AA3;fontColor=#46495D;" parent="suNme6-eA1xpTHc4A4N6-82" vertex="1">
          <mxGeometry y="82" width="160" height="26" as="geometry" />
        </mxCell>
        <mxCell id="suNme6-eA1xpTHc4A4N6-86" value="FK" style="shape=partialRectangle;top=0;left=0;bottom=0;html=1;fillColor=none;align=left;verticalAlign=top;spacingLeft=4;spacingRight=4;whiteSpace=wrap;overflow=hidden;rotatable=0;points=[];portConstraint=eastwest;part=1;labelBackgroundColor=none;strokeColor=#788AA3;fontColor=#46495D;" parent="suNme6-eA1xpTHc4A4N6-85" vertex="1" connectable="0">
          <mxGeometry width="30" height="26" as="geometry" />
        </mxCell>
        <mxCell id="suNme6-eA1xpTHc4A4N6-87" value="" style="shape=partialRectangle;top=0;left=0;right=0;bottom=0;html=1;align=left;verticalAlign=top;fillColor=none;spacingLeft=34;spacingRight=4;whiteSpace=wrap;overflow=hidden;rotatable=0;points=[[0,0.5],[1,0.5]];portConstraint=eastwest;dropTarget=0;labelBackgroundColor=none;strokeColor=#788AA3;fontColor=#46495D;" parent="suNme6-eA1xpTHc4A4N6-82" vertex="1">
          <mxGeometry y="108" width="160" height="10" as="geometry" />
        </mxCell>
        <mxCell id="suNme6-eA1xpTHc4A4N6-88" value="" style="shape=partialRectangle;top=0;left=0;bottom=0;html=1;fillColor=none;align=left;verticalAlign=top;spacingLeft=4;spacingRight=4;whiteSpace=wrap;overflow=hidden;rotatable=0;points=[];portConstraint=eastwest;part=1;labelBackgroundColor=none;strokeColor=#788AA3;fontColor=#46495D;" parent="suNme6-eA1xpTHc4A4N6-87" vertex="1" connectable="0">
          <mxGeometry width="30" height="10" as="geometry" />
        </mxCell>
        <mxCell id="suNme6-eA1xpTHc4A4N6-97" value="" style="edgeStyle=entityRelationEdgeStyle;fontSize=12;html=1;endArrow=ERoneToMany;rounded=0;" parent="1" source="suNme6-eA1xpTHc4A4N6-64" target="suNme6-eA1xpTHc4A4N6-85" edge="1">
          <mxGeometry width="100" height="100" relative="1" as="geometry">
            <mxPoint x="390" y="-236" as="sourcePoint" />
            <mxPoint x="490" y="-336" as="targetPoint" />
            <Array as="points">
              <mxPoint x="360" y="-456" />
            </Array>
          </mxGeometry>
        </mxCell>
        <mxCell id="yD0bjzbKo4kkje4cAU-9-1" value="브랜드" style="swimlane;html=1;fontStyle=0;childLayout=stackLayout;horizontal=1;startSize=26;fillColor=#B2C9AB;horizontalStack=0;resizeParent=1;resizeLast=0;collapsible=1;marginBottom=0;swimlaneFillColor=#ffffff;align=center;rounded=0;shadow=0;comic=0;labelBackgroundColor=none;strokeWidth=1;fontFamily=Verdana;fontSize=14;strokeColor=#788AA3;fontColor=#46495D;" parent="1" vertex="1">
          <mxGeometry x="80" y="-214" width="160" height="118" as="geometry" />
        </mxCell>
        <mxCell id="yD0bjzbKo4kkje4cAU-9-2" value="브랜드ID" style="shape=partialRectangle;top=0;left=0;right=0;bottom=1;html=1;align=left;verticalAlign=middle;fillColor=none;spacingLeft=34;spacingRight=4;whiteSpace=wrap;overflow=hidden;rotatable=0;points=[[0,0.5],[1,0.5]];portConstraint=eastwest;dropTarget=0;fontStyle=5;labelBackgroundColor=none;strokeColor=#788AA3;fontColor=#46495D;" parent="yD0bjzbKo4kkje4cAU-9-1" vertex="1">
          <mxGeometry y="26" width="160" height="30" as="geometry" />
        </mxCell>
        <mxCell id="yD0bjzbKo4kkje4cAU-9-3" value="PK" style="shape=partialRectangle;top=0;left=0;bottom=0;html=1;fillColor=none;align=left;verticalAlign=middle;spacingLeft=4;spacingRight=4;whiteSpace=wrap;overflow=hidden;rotatable=0;points=[];portConstraint=eastwest;part=1;labelBackgroundColor=none;strokeColor=#788AA3;fontColor=#46495D;" parent="yD0bjzbKo4kkje4cAU-9-2" vertex="1" connectable="0">
          <mxGeometry width="30" height="30" as="geometry" />
        </mxCell>
        <mxCell id="yD0bjzbKo4kkje4cAU-9-4" value="지점 코드" style="shape=partialRectangle;top=0;left=0;right=0;bottom=0;html=1;align=left;verticalAlign=top;fillColor=none;spacingLeft=34;spacingRight=4;whiteSpace=wrap;overflow=hidden;rotatable=0;points=[[0,0.5],[1,0.5]];portConstraint=eastwest;dropTarget=0;labelBackgroundColor=none;strokeColor=#788AA3;fontColor=#46495D;" parent="yD0bjzbKo4kkje4cAU-9-1" vertex="1">
          <mxGeometry y="56" width="160" height="26" as="geometry" />
        </mxCell>
        <mxCell id="yD0bjzbKo4kkje4cAU-9-5" value="FK" style="shape=partialRectangle;top=0;left=0;bottom=0;html=1;fillColor=none;align=left;verticalAlign=top;spacingLeft=4;spacingRight=4;whiteSpace=wrap;overflow=hidden;rotatable=0;points=[];portConstraint=eastwest;part=1;labelBackgroundColor=none;strokeColor=#788AA3;fontColor=#46495D;" parent="yD0bjzbKo4kkje4cAU-9-4" vertex="1" connectable="0">
          <mxGeometry width="30" height="26" as="geometry" />
        </mxCell>
        <mxCell id="yD0bjzbKo4kkje4cAU-9-45" value="브랜드명" style="shape=partialRectangle;top=0;left=0;right=0;bottom=0;html=1;align=left;verticalAlign=top;fillColor=none;spacingLeft=34;spacingRight=4;whiteSpace=wrap;overflow=hidden;rotatable=0;points=[[0,0.5],[1,0.5]];portConstraint=eastwest;dropTarget=0;labelBackgroundColor=none;strokeColor=#788AA3;fontColor=#46495D;" parent="yD0bjzbKo4kkje4cAU-9-1" vertex="1">
          <mxGeometry y="82" width="160" height="26" as="geometry" />
        </mxCell>
        <mxCell id="yD0bjzbKo4kkje4cAU-9-46" value="" style="shape=partialRectangle;top=0;left=0;bottom=0;html=1;fillColor=none;align=left;verticalAlign=top;spacingLeft=4;spacingRight=4;whiteSpace=wrap;overflow=hidden;rotatable=0;points=[];portConstraint=eastwest;part=1;labelBackgroundColor=none;strokeColor=#788AA3;fontColor=#46495D;" parent="yD0bjzbKo4kkje4cAU-9-45" vertex="1" connectable="0">
          <mxGeometry width="30" height="26" as="geometry" />
        </mxCell>
        <mxCell id="yD0bjzbKo4kkje4cAU-9-6" value="" style="shape=partialRectangle;top=0;left=0;right=0;bottom=0;html=1;align=left;verticalAlign=top;fillColor=none;spacingLeft=34;spacingRight=4;whiteSpace=wrap;overflow=hidden;rotatable=0;points=[[0,0.5],[1,0.5]];portConstraint=eastwest;dropTarget=0;labelBackgroundColor=none;strokeColor=#788AA3;fontColor=#46495D;" parent="yD0bjzbKo4kkje4cAU-9-1" vertex="1">
          <mxGeometry y="108" width="160" height="10" as="geometry" />
        </mxCell>
        <mxCell id="yD0bjzbKo4kkje4cAU-9-7" value="" style="shape=partialRectangle;top=0;left=0;bottom=0;html=1;fillColor=none;align=left;verticalAlign=top;spacingLeft=4;spacingRight=4;whiteSpace=wrap;overflow=hidden;rotatable=0;points=[];portConstraint=eastwest;part=1;labelBackgroundColor=none;strokeColor=#788AA3;fontColor=#46495D;" parent="yD0bjzbKo4kkje4cAU-9-6" vertex="1" connectable="0">
          <mxGeometry width="30" height="10" as="geometry" />
        </mxCell>
        <mxCell id="yD0bjzbKo4kkje4cAU-9-14" value="" style="edgeStyle=entityRelationEdgeStyle;fontSize=12;html=1;endArrow=ERoneToMany;rounded=0;" parent="1" source="yD0bjzbKo4kkje4cAU-9-2" target="yD0bjzbKo4kkje4cAU-9-12" edge="1">
          <mxGeometry width="100" height="100" relative="1" as="geometry">
            <mxPoint x="430" y="-319" as="sourcePoint" />
            <mxPoint x="330" y="125" as="targetPoint" />
            <Array as="points">
              <mxPoint x="290" y="-170" />
              <mxPoint x="-20" y="10" />
              <mxPoint x="-10" y="-10" />
            </Array>
          </mxGeometry>
        </mxCell>
        <mxCell id="yD0bjzbKo4kkje4cAU-9-36" value="회사코드관리" style="swimlane;html=1;fontStyle=0;childLayout=stackLayout;horizontal=1;startSize=26;fillColor=#B2C9AB;horizontalStack=0;resizeParent=1;resizeLast=0;collapsible=1;marginBottom=0;swimlaneFillColor=#ffffff;align=center;rounded=0;shadow=0;comic=0;labelBackgroundColor=none;strokeWidth=1;fontFamily=Verdana;fontSize=14;strokeColor=#788AA3;fontColor=#46495D;" parent="1" vertex="1">
          <mxGeometry x="-230" y="-160" width="160" height="96" as="geometry" />
        </mxCell>
        <mxCell id="yD0bjzbKo4kkje4cAU-9-37" value="HQ 코드" style="shape=partialRectangle;top=0;left=0;right=0;bottom=1;html=1;align=left;verticalAlign=middle;fillColor=none;spacingLeft=34;spacingRight=4;whiteSpace=wrap;overflow=hidden;rotatable=0;points=[[0,0.5],[1,0.5]];portConstraint=eastwest;dropTarget=0;fontStyle=5;labelBackgroundColor=none;strokeColor=#788AA3;fontColor=#46495D;" parent="yD0bjzbKo4kkje4cAU-9-36" vertex="1">
          <mxGeometry y="26" width="160" height="30" as="geometry" />
        </mxCell>
        <mxCell id="yD0bjzbKo4kkje4cAU-9-38" value="PK" style="shape=partialRectangle;top=0;left=0;bottom=0;html=1;fillColor=none;align=left;verticalAlign=middle;spacingLeft=4;spacingRight=4;whiteSpace=wrap;overflow=hidden;rotatable=0;points=[];portConstraint=eastwest;part=1;labelBackgroundColor=none;strokeColor=#788AA3;fontColor=#46495D;" parent="yD0bjzbKo4kkje4cAU-9-37" vertex="1" connectable="0">
          <mxGeometry width="30" height="30" as="geometry" />
        </mxCell>
        <mxCell id="yD0bjzbKo4kkje4cAU-9-39" value="지점 코드" style="shape=partialRectangle;top=0;left=0;right=0;bottom=1;html=1;align=left;verticalAlign=middle;fillColor=none;spacingLeft=34;spacingRight=4;whiteSpace=wrap;overflow=hidden;rotatable=0;points=[[0,0.5],[1,0.5]];portConstraint=eastwest;dropTarget=0;fontStyle=5;labelBackgroundColor=none;strokeColor=#788AA3;fontColor=#46495D;" parent="yD0bjzbKo4kkje4cAU-9-36" vertex="1">
          <mxGeometry y="56" width="160" height="30" as="geometry" />
        </mxCell>
        <mxCell id="yD0bjzbKo4kkje4cAU-9-40" value="PK" style="shape=partialRectangle;top=0;left=0;bottom=0;html=1;fillColor=none;align=left;verticalAlign=middle;spacingLeft=4;spacingRight=4;whiteSpace=wrap;overflow=hidden;rotatable=0;points=[];portConstraint=eastwest;part=1;labelBackgroundColor=none;strokeColor=#788AA3;fontColor=#46495D;" parent="yD0bjzbKo4kkje4cAU-9-39" vertex="1" connectable="0">
          <mxGeometry width="30" height="30" as="geometry" />
        </mxCell>
        <mxCell id="yD0bjzbKo4kkje4cAU-9-41" value="" style="shape=partialRectangle;top=0;left=0;right=0;bottom=0;html=1;align=left;verticalAlign=top;fillColor=none;spacingLeft=34;spacingRight=4;whiteSpace=wrap;overflow=hidden;rotatable=0;points=[[0,0.5],[1,0.5]];portConstraint=eastwest;dropTarget=0;labelBackgroundColor=none;strokeColor=#788AA3;fontColor=#46495D;" parent="yD0bjzbKo4kkje4cAU-9-36" vertex="1">
          <mxGeometry y="86" width="160" height="10" as="geometry" />
        </mxCell>
        <mxCell id="yD0bjzbKo4kkje4cAU-9-42" value="" style="shape=partialRectangle;top=0;left=0;bottom=0;html=1;fillColor=none;align=left;verticalAlign=top;spacingLeft=4;spacingRight=4;whiteSpace=wrap;overflow=hidden;rotatable=0;points=[];portConstraint=eastwest;part=1;labelBackgroundColor=none;strokeColor=#788AA3;fontColor=#46495D;" parent="yD0bjzbKo4kkje4cAU-9-41" vertex="1" connectable="0">
          <mxGeometry width="30" height="10" as="geometry" />
        </mxCell>
        <mxCell id="yD0bjzbKo4kkje4cAU-9-43" value="&lt;div&gt;&lt;font&gt;&lt;br&gt;&lt;/font&gt;&lt;/div&gt;&lt;ul&gt;&lt;li&gt;CRM 또는 룰루어드민 사이트에서 CMS 사이트 진입 시 정의된 entryPoint로 redirect 하여 로그인 예정&lt;/li&gt;&lt;li&gt;redirect 요청에는 SSO jwt 토큰, HQ코드, 지점코드가 포함 됨.&lt;br&gt;&lt;/li&gt;&lt;li&gt;요청에 포함된 jwt token 검증 성공 시&lt;/li&gt;&lt;ul&gt;&lt;li&gt;토큰에 포함된 계정ID 및 HQ/지점코드 정보를 사용중인 인증방식으로 관리(세션 or 토큰)&lt;/li&gt;&lt;li&gt;&quot;회사코드관리&quot; 테이블에 HQ코드 및 지점코드 저장(insert)&lt;/li&gt;&lt;li&gt;미등록 사용자인 경우 &quot;사용자관리&quot; 테이블에 계정ID 저장(insert)&lt;/li&gt;&lt;/ul&gt;&lt;li&gt;회사코드 정보&lt;/li&gt;&lt;ul&gt;&lt;li&gt;HQ코드 == 지점코드&amp;nbsp; -&amp;gt; HQ(본부)&lt;/li&gt;&lt;li&gt;HQ코드 != 지점코드 -&amp;gt; 지점&lt;/li&gt;&lt;/ul&gt;&lt;/ul&gt;" style="text;html=1;whiteSpace=wrap;verticalAlign=middle;overflow=hidden;labelBackgroundColor=default;fillColor=default;" parent="1" vertex="1">
          <mxGeometry x="-610" y="-330" width="600" height="160" as="geometry" />
        </mxCell>
        <mxCell id="yD0bjzbKo4kkje4cAU-9-44" value="" style="edgeStyle=entityRelationEdgeStyle;fontSize=12;html=1;endArrow=ERoneToMany;rounded=0;" parent="1" source="yD0bjzbKo4kkje4cAU-9-39" target="yD0bjzbKo4kkje4cAU-9-4" edge="1">
          <mxGeometry width="100" height="100" relative="1" as="geometry">
            <mxPoint x="250" y="-163" as="sourcePoint" />
            <mxPoint x="330" y="151" as="targetPoint" />
            <Array as="points">
              <mxPoint x="300" y="-160" />
              <mxPoint x="-10" y="20" />
              <mxPoint />
            </Array>
          </mxGeometry>
        </mxCell>
        <mxCell id="yD0bjzbKo4kkje4cAU-9-49" value="화장품 추천 대상" style="swimlane;html=1;fontStyle=0;childLayout=stackLayout;horizontal=1;startSize=26;fillColor=#B2C9AB;horizontalStack=0;resizeParent=1;resizeLast=0;collapsible=1;marginBottom=0;swimlaneFillColor=#ffffff;align=center;rounded=0;shadow=0;comic=0;labelBackgroundColor=none;strokeWidth=1;fontFamily=Verdana;fontSize=14;strokeColor=#788AA3;fontColor=#46495D;" parent="1" vertex="1">
          <mxGeometry x="380" y="20" width="290" height="508" as="geometry" />
        </mxCell>
        <mxCell id="yD0bjzbKo4kkje4cAU-9-50" value="화장품ID" style="shape=partialRectangle;top=0;left=0;right=0;bottom=1;html=1;align=left;verticalAlign=middle;fillColor=none;spacingLeft=34;spacingRight=4;whiteSpace=wrap;overflow=hidden;rotatable=0;points=[[0,0.5],[1,0.5]];portConstraint=eastwest;dropTarget=0;fontStyle=5;labelBackgroundColor=none;strokeColor=#788AA3;fontColor=#46495D;" parent="yD0bjzbKo4kkje4cAU-9-49" vertex="1">
          <mxGeometry y="26" width="290" height="30" as="geometry" />
        </mxCell>
        <mxCell id="yD0bjzbKo4kkje4cAU-9-51" value="PK, FK" style="shape=partialRectangle;top=0;left=0;bottom=0;html=1;fillColor=none;align=left;verticalAlign=middle;spacingLeft=4;spacingRight=4;whiteSpace=wrap;overflow=hidden;rotatable=0;points=[];portConstraint=eastwest;part=1;labelBackgroundColor=none;strokeColor=#788AA3;fontColor=#46495D;" parent="yD0bjzbKo4kkje4cAU-9-50" vertex="1" connectable="0">
          <mxGeometry width="30" height="30" as="geometry" />
        </mxCell>
        <mxCell id="yD0bjzbKo4kkje4cAU-9-52" value="성별&amp;nbsp;- 다중옵션" style="shape=partialRectangle;top=0;left=0;right=0;bottom=0;html=1;align=left;verticalAlign=top;fillColor=none;spacingLeft=34;spacingRight=4;whiteSpace=wrap;overflow=hidden;rotatable=0;points=[[0,0.5],[1,0.5]];portConstraint=eastwest;dropTarget=0;labelBackgroundColor=none;strokeColor=#788AA3;fontColor=#46495D;" parent="yD0bjzbKo4kkje4cAU-9-49" vertex="1">
          <mxGeometry y="56" width="290" height="26" as="geometry" />
        </mxCell>
        <mxCell id="yD0bjzbKo4kkje4cAU-9-53" value="" style="shape=partialRectangle;top=0;left=0;bottom=0;html=1;fillColor=none;align=left;verticalAlign=top;spacingLeft=4;spacingRight=4;whiteSpace=wrap;overflow=hidden;rotatable=0;points=[];portConstraint=eastwest;part=1;labelBackgroundColor=none;strokeColor=#788AA3;fontColor=#46495D;" parent="yD0bjzbKo4kkje4cAU-9-52" vertex="1" connectable="0">
          <mxGeometry width="30" height="26" as="geometry" />
        </mxCell>
        <mxCell id="yD0bjzbKo4kkje4cAU-9-54" value="연령 - 다중옵션" style="shape=partialRectangle;top=0;left=0;right=0;bottom=0;html=1;align=left;verticalAlign=top;fillColor=none;spacingLeft=34;spacingRight=4;whiteSpace=wrap;overflow=hidden;rotatable=0;points=[[0,0.5],[1,0.5]];portConstraint=eastwest;dropTarget=0;labelBackgroundColor=none;strokeColor=#788AA3;fontColor=#46495D;" parent="yD0bjzbKo4kkje4cAU-9-49" vertex="1">
          <mxGeometry y="82" width="290" height="26" as="geometry" />
        </mxCell>
        <mxCell id="yD0bjzbKo4kkje4cAU-9-55" value="" style="shape=partialRectangle;top=0;left=0;bottom=0;html=1;fillColor=none;align=left;verticalAlign=top;spacingLeft=4;spacingRight=4;whiteSpace=wrap;overflow=hidden;rotatable=0;points=[];portConstraint=eastwest;part=1;labelBackgroundColor=none;strokeColor=#788AA3;fontColor=#46495D;" parent="yD0bjzbKo4kkje4cAU-9-54" vertex="1" connectable="0">
          <mxGeometry width="30" height="26" as="geometry" />
        </mxCell>
        <mxCell id="-OS_wRwdG3Yrzp-EU8W0-26" value="피부타입(ex. DS, NS, OS, ...) - 다중옵션" style="shape=partialRectangle;top=0;left=0;right=0;bottom=0;html=1;align=left;verticalAlign=top;fillColor=none;spacingLeft=34;spacingRight=4;whiteSpace=wrap;overflow=hidden;rotatable=0;points=[[0,0.5],[1,0.5]];portConstraint=eastwest;dropTarget=0;labelBackgroundColor=none;strokeColor=#788AA3;fontColor=#46495D;" vertex="1" parent="yD0bjzbKo4kkje4cAU-9-49">
          <mxGeometry y="108" width="290" height="26" as="geometry" />
        </mxCell>
        <mxCell id="-OS_wRwdG3Yrzp-EU8W0-27" value="" style="shape=partialRectangle;top=0;left=0;bottom=0;html=1;fillColor=none;align=left;verticalAlign=top;spacingLeft=4;spacingRight=4;whiteSpace=wrap;overflow=hidden;rotatable=0;points=[];portConstraint=eastwest;part=1;labelBackgroundColor=none;strokeColor=#788AA3;fontColor=#46495D;" vertex="1" connectable="0" parent="-OS_wRwdG3Yrzp-EU8W0-26">
          <mxGeometry width="30" height="26" as="geometry" />
        </mxCell>
        <mxCell id="yD0bjzbKo4kkje4cAU-9-58" value="피부타입 옵션1 - 다중옵션" style="shape=partialRectangle;top=0;left=0;right=0;bottom=0;html=1;align=left;verticalAlign=top;fillColor=none;spacingLeft=34;spacingRight=4;whiteSpace=wrap;overflow=hidden;rotatable=0;points=[[0,0.5],[1,0.5]];portConstraint=eastwest;dropTarget=0;labelBackgroundColor=none;strokeColor=#788AA3;fontColor=#46495D;" parent="yD0bjzbKo4kkje4cAU-9-49" vertex="1">
          <mxGeometry y="134" width="290" height="26" as="geometry" />
        </mxCell>
        <mxCell id="yD0bjzbKo4kkje4cAU-9-59" value="" style="shape=partialRectangle;top=0;left=0;bottom=0;html=1;fillColor=none;align=left;verticalAlign=top;spacingLeft=4;spacingRight=4;whiteSpace=wrap;overflow=hidden;rotatable=0;points=[];portConstraint=eastwest;part=1;labelBackgroundColor=none;strokeColor=#788AA3;fontColor=#46495D;" parent="yD0bjzbKo4kkje4cAU-9-58" vertex="1" connectable="0">
          <mxGeometry width="30" height="26" as="geometry" />
        </mxCell>
        <mxCell id="yD0bjzbKo4kkje4cAU-9-60" value="피부타입 옵션2 - 다중옵션" style="shape=partialRectangle;top=0;left=0;right=0;bottom=0;html=1;align=left;verticalAlign=top;fillColor=none;spacingLeft=34;spacingRight=4;whiteSpace=wrap;overflow=hidden;rotatable=0;points=[[0,0.5],[1,0.5]];portConstraint=eastwest;dropTarget=0;labelBackgroundColor=none;strokeColor=#788AA3;fontColor=#46495D;" parent="yD0bjzbKo4kkje4cAU-9-49" vertex="1">
          <mxGeometry y="160" width="290" height="26" as="geometry" />
        </mxCell>
        <mxCell id="yD0bjzbKo4kkje4cAU-9-61" value="" style="shape=partialRectangle;top=0;left=0;bottom=0;html=1;fillColor=none;align=left;verticalAlign=top;spacingLeft=4;spacingRight=4;whiteSpace=wrap;overflow=hidden;rotatable=0;points=[];portConstraint=eastwest;part=1;labelBackgroundColor=none;strokeColor=#788AA3;fontColor=#46495D;" parent="yD0bjzbKo4kkje4cAU-9-60" vertex="1" connectable="0">
          <mxGeometry width="30" height="26" as="geometry" />
        </mxCell>
        <mxCell id="yD0bjzbKo4kkje4cAU-9-62" value="피부타입 옵션3 - 다중옵션" style="shape=partialRectangle;top=0;left=0;right=0;bottom=0;html=1;align=left;verticalAlign=top;fillColor=none;spacingLeft=34;spacingRight=4;whiteSpace=wrap;overflow=hidden;rotatable=0;points=[[0,0.5],[1,0.5]];portConstraint=eastwest;dropTarget=0;labelBackgroundColor=none;strokeColor=#788AA3;fontColor=#46495D;" parent="yD0bjzbKo4kkje4cAU-9-49" vertex="1">
          <mxGeometry y="186" width="290" height="26" as="geometry" />
        </mxCell>
        <mxCell id="yD0bjzbKo4kkje4cAU-9-63" value="" style="shape=partialRectangle;top=0;left=0;bottom=0;html=1;fillColor=none;align=left;verticalAlign=top;spacingLeft=4;spacingRight=4;whiteSpace=wrap;overflow=hidden;rotatable=0;points=[];portConstraint=eastwest;part=1;labelBackgroundColor=none;strokeColor=#788AA3;fontColor=#46495D;" parent="yD0bjzbKo4kkje4cAU-9-62" vertex="1" connectable="0">
          <mxGeometry width="30" height="26" as="geometry" />
        </mxCell>
        <mxCell id="yD0bjzbKo4kkje4cAU-9-64" value="트러블(상/중/하)" style="shape=partialRectangle;top=0;left=0;right=0;bottom=0;html=1;align=left;verticalAlign=top;fillColor=none;spacingLeft=34;spacingRight=4;whiteSpace=wrap;overflow=hidden;rotatable=0;points=[[0,0.5],[1,0.5]];portConstraint=eastwest;dropTarget=0;labelBackgroundColor=none;strokeColor=#788AA3;fontColor=#46495D;" parent="yD0bjzbKo4kkje4cAU-9-49" vertex="1">
          <mxGeometry y="212" width="290" height="26" as="geometry" />
        </mxCell>
        <mxCell id="yD0bjzbKo4kkje4cAU-9-65" value="" style="shape=partialRectangle;top=0;left=0;bottom=0;html=1;fillColor=none;align=left;verticalAlign=top;spacingLeft=4;spacingRight=4;whiteSpace=wrap;overflow=hidden;rotatable=0;points=[];portConstraint=eastwest;part=1;labelBackgroundColor=none;strokeColor=#788AA3;fontColor=#46495D;" parent="yD0bjzbKo4kkje4cAU-9-64" vertex="1" connectable="0">
          <mxGeometry width="30" height="26" as="geometry" />
        </mxCell>
        <mxCell id="yD0bjzbKo4kkje4cAU-9-66" value="모공(상/중/하)" style="shape=partialRectangle;top=0;left=0;right=0;bottom=0;html=1;align=left;verticalAlign=top;fillColor=none;spacingLeft=34;spacingRight=4;whiteSpace=wrap;overflow=hidden;rotatable=0;points=[[0,0.5],[1,0.5]];portConstraint=eastwest;dropTarget=0;labelBackgroundColor=none;strokeColor=#788AA3;fontColor=#46495D;" parent="yD0bjzbKo4kkje4cAU-9-49" vertex="1">
          <mxGeometry y="238" width="290" height="26" as="geometry" />
        </mxCell>
        <mxCell id="yD0bjzbKo4kkje4cAU-9-67" value="" style="shape=partialRectangle;top=0;left=0;bottom=0;html=1;fillColor=none;align=left;verticalAlign=top;spacingLeft=4;spacingRight=4;whiteSpace=wrap;overflow=hidden;rotatable=0;points=[];portConstraint=eastwest;part=1;labelBackgroundColor=none;strokeColor=#788AA3;fontColor=#46495D;" parent="yD0bjzbKo4kkje4cAU-9-66" vertex="1" connectable="0">
          <mxGeometry width="30" height="26" as="geometry" />
        </mxCell>
        <mxCell id="yD0bjzbKo4kkje4cAU-9-68" value="다크서클(상/중/하)" style="shape=partialRectangle;top=0;left=0;right=0;bottom=0;html=1;align=left;verticalAlign=top;fillColor=none;spacingLeft=34;spacingRight=4;whiteSpace=wrap;overflow=hidden;rotatable=0;points=[[0,0.5],[1,0.5]];portConstraint=eastwest;dropTarget=0;labelBackgroundColor=none;strokeColor=#788AA3;fontColor=#46495D;" parent="yD0bjzbKo4kkje4cAU-9-49" vertex="1">
          <mxGeometry y="264" width="290" height="26" as="geometry" />
        </mxCell>
        <mxCell id="yD0bjzbKo4kkje4cAU-9-69" value="" style="shape=partialRectangle;top=0;left=0;bottom=0;html=1;fillColor=none;align=left;verticalAlign=top;spacingLeft=4;spacingRight=4;whiteSpace=wrap;overflow=hidden;rotatable=0;points=[];portConstraint=eastwest;part=1;labelBackgroundColor=none;strokeColor=#788AA3;fontColor=#46495D;" parent="yD0bjzbKo4kkje4cAU-9-68" vertex="1" connectable="0">
          <mxGeometry width="30" height="26" as="geometry" />
        </mxCell>
        <mxCell id="yD0bjzbKo4kkje4cAU-9-70" value="피지(상/중/하)" style="shape=partialRectangle;top=0;left=0;right=0;bottom=0;html=1;align=left;verticalAlign=top;fillColor=none;spacingLeft=34;spacingRight=4;whiteSpace=wrap;overflow=hidden;rotatable=0;points=[[0,0.5],[1,0.5]];portConstraint=eastwest;dropTarget=0;labelBackgroundColor=none;strokeColor=#788AA3;fontColor=#46495D;" parent="yD0bjzbKo4kkje4cAU-9-49" vertex="1">
          <mxGeometry y="290" width="290" height="26" as="geometry" />
        </mxCell>
        <mxCell id="yD0bjzbKo4kkje4cAU-9-71" value="" style="shape=partialRectangle;top=0;left=0;bottom=0;html=1;fillColor=none;align=left;verticalAlign=top;spacingLeft=4;spacingRight=4;whiteSpace=wrap;overflow=hidden;rotatable=0;points=[];portConstraint=eastwest;part=1;labelBackgroundColor=none;strokeColor=#788AA3;fontColor=#46495D;" parent="yD0bjzbKo4kkje4cAU-9-70" vertex="1" connectable="0">
          <mxGeometry width="30" height="26" as="geometry" />
        </mxCell>
        <mxCell id="yD0bjzbKo4kkje4cAU-9-72" value="광채(상/중/하)" style="shape=partialRectangle;top=0;left=0;right=0;bottom=0;html=1;align=left;verticalAlign=top;fillColor=none;spacingLeft=34;spacingRight=4;whiteSpace=wrap;overflow=hidden;rotatable=0;points=[[0,0.5],[1,0.5]];portConstraint=eastwest;dropTarget=0;labelBackgroundColor=none;strokeColor=#788AA3;fontColor=#46495D;" parent="yD0bjzbKo4kkje4cAU-9-49" vertex="1">
          <mxGeometry y="316" width="290" height="26" as="geometry" />
        </mxCell>
        <mxCell id="yD0bjzbKo4kkje4cAU-9-73" value="" style="shape=partialRectangle;top=0;left=0;bottom=0;html=1;fillColor=none;align=left;verticalAlign=top;spacingLeft=4;spacingRight=4;whiteSpace=wrap;overflow=hidden;rotatable=0;points=[];portConstraint=eastwest;part=1;labelBackgroundColor=none;strokeColor=#788AA3;fontColor=#46495D;" parent="yD0bjzbKo4kkje4cAU-9-72" vertex="1" connectable="0">
          <mxGeometry width="30" height="26" as="geometry" />
        </mxCell>
        <mxCell id="yD0bjzbKo4kkje4cAU-9-74" value="색소침착(상/중/하)" style="shape=partialRectangle;top=0;left=0;right=0;bottom=0;html=1;align=left;verticalAlign=top;fillColor=none;spacingLeft=34;spacingRight=4;whiteSpace=wrap;overflow=hidden;rotatable=0;points=[[0,0.5],[1,0.5]];portConstraint=eastwest;dropTarget=0;labelBackgroundColor=none;strokeColor=#788AA3;fontColor=#46495D;" parent="yD0bjzbKo4kkje4cAU-9-49" vertex="1">
          <mxGeometry y="342" width="290" height="26" as="geometry" />
        </mxCell>
        <mxCell id="yD0bjzbKo4kkje4cAU-9-75" value="" style="shape=partialRectangle;top=0;left=0;bottom=0;html=1;fillColor=none;align=left;verticalAlign=top;spacingLeft=4;spacingRight=4;whiteSpace=wrap;overflow=hidden;rotatable=0;points=[];portConstraint=eastwest;part=1;labelBackgroundColor=none;strokeColor=#788AA3;fontColor=#46495D;" parent="yD0bjzbKo4kkje4cAU-9-74" vertex="1" connectable="0">
          <mxGeometry width="30" height="26" as="geometry" />
        </mxCell>
        <mxCell id="yD0bjzbKo4kkje4cAU-9-76" value="주름(상/중/하)" style="shape=partialRectangle;top=0;left=0;right=0;bottom=0;html=1;align=left;verticalAlign=top;fillColor=none;spacingLeft=34;spacingRight=4;whiteSpace=wrap;overflow=hidden;rotatable=0;points=[[0,0.5],[1,0.5]];portConstraint=eastwest;dropTarget=0;labelBackgroundColor=none;strokeColor=#788AA3;fontColor=#46495D;" parent="yD0bjzbKo4kkje4cAU-9-49" vertex="1">
          <mxGeometry y="368" width="290" height="26" as="geometry" />
        </mxCell>
        <mxCell id="yD0bjzbKo4kkje4cAU-9-77" value="" style="shape=partialRectangle;top=0;left=0;bottom=0;html=1;fillColor=none;align=left;verticalAlign=top;spacingLeft=4;spacingRight=4;whiteSpace=wrap;overflow=hidden;rotatable=0;points=[];portConstraint=eastwest;part=1;labelBackgroundColor=none;strokeColor=#788AA3;fontColor=#46495D;" parent="yD0bjzbKo4kkje4cAU-9-76" vertex="1" connectable="0">
          <mxGeometry width="30" height="26" as="geometry" />
        </mxCell>
        <mxCell id="yD0bjzbKo4kkje4cAU-9-78" value="홍조(상/중/하)" style="shape=partialRectangle;top=0;left=0;right=0;bottom=0;html=1;align=left;verticalAlign=top;fillColor=none;spacingLeft=34;spacingRight=4;whiteSpace=wrap;overflow=hidden;rotatable=0;points=[[0,0.5],[1,0.5]];portConstraint=eastwest;dropTarget=0;labelBackgroundColor=none;strokeColor=#788AA3;fontColor=#46495D;" parent="yD0bjzbKo4kkje4cAU-9-49" vertex="1">
          <mxGeometry y="394" width="290" height="26" as="geometry" />
        </mxCell>
        <mxCell id="yD0bjzbKo4kkje4cAU-9-79" value="" style="shape=partialRectangle;top=0;left=0;bottom=0;html=1;fillColor=none;align=left;verticalAlign=top;spacingLeft=4;spacingRight=4;whiteSpace=wrap;overflow=hidden;rotatable=0;points=[];portConstraint=eastwest;part=1;labelBackgroundColor=none;strokeColor=#788AA3;fontColor=#46495D;" parent="yD0bjzbKo4kkje4cAU-9-78" vertex="1" connectable="0">
          <mxGeometry width="30" height="26" as="geometry" />
        </mxCell>
        <mxCell id="yD0bjzbKo4kkje4cAU-9-80" value="탄력(상/중/하)" style="shape=partialRectangle;top=0;left=0;right=0;bottom=0;html=1;align=left;verticalAlign=top;fillColor=none;spacingLeft=34;spacingRight=4;whiteSpace=wrap;overflow=hidden;rotatable=0;points=[[0,0.5],[1,0.5]];portConstraint=eastwest;dropTarget=0;labelBackgroundColor=none;strokeColor=#788AA3;fontColor=#46495D;" parent="yD0bjzbKo4kkje4cAU-9-49" vertex="1">
          <mxGeometry y="420" width="290" height="26" as="geometry" />
        </mxCell>
        <mxCell id="yD0bjzbKo4kkje4cAU-9-81" value="" style="shape=partialRectangle;top=0;left=0;bottom=0;html=1;fillColor=none;align=left;verticalAlign=top;spacingLeft=4;spacingRight=4;whiteSpace=wrap;overflow=hidden;rotatable=0;points=[];portConstraint=eastwest;part=1;labelBackgroundColor=none;strokeColor=#788AA3;fontColor=#46495D;" parent="yD0bjzbKo4kkje4cAU-9-80" vertex="1" connectable="0">
          <mxGeometry width="30" height="26" as="geometry" />
        </mxCell>
        <mxCell id="yD0bjzbKo4kkje4cAU-9-82" value="피부결 (상/중/하)" style="shape=partialRectangle;top=0;left=0;right=0;bottom=0;html=1;align=left;verticalAlign=top;fillColor=none;spacingLeft=34;spacingRight=4;whiteSpace=wrap;overflow=hidden;rotatable=0;points=[[0,0.5],[1,0.5]];portConstraint=eastwest;dropTarget=0;labelBackgroundColor=none;strokeColor=#788AA3;fontColor=#46495D;" parent="yD0bjzbKo4kkje4cAU-9-49" vertex="1">
          <mxGeometry y="446" width="290" height="26" as="geometry" />
        </mxCell>
        <mxCell id="yD0bjzbKo4kkje4cAU-9-83" value="" style="shape=partialRectangle;top=0;left=0;bottom=0;html=1;fillColor=none;align=left;verticalAlign=top;spacingLeft=4;spacingRight=4;whiteSpace=wrap;overflow=hidden;rotatable=0;points=[];portConstraint=eastwest;part=1;labelBackgroundColor=none;strokeColor=#788AA3;fontColor=#46495D;" parent="yD0bjzbKo4kkje4cAU-9-82" vertex="1" connectable="0">
          <mxGeometry width="30" height="26" as="geometry" />
        </mxCell>
        <mxCell id="yD0bjzbKo4kkje4cAU-9-84" value="" style="shape=partialRectangle;top=0;left=0;right=0;bottom=0;html=1;align=left;verticalAlign=top;fillColor=none;spacingLeft=34;spacingRight=4;whiteSpace=wrap;overflow=hidden;rotatable=0;points=[[0,0.5],[1,0.5]];portConstraint=eastwest;dropTarget=0;labelBackgroundColor=none;strokeColor=#788AA3;fontColor=#46495D;" parent="yD0bjzbKo4kkje4cAU-9-49" vertex="1">
          <mxGeometry y="472" width="290" height="10" as="geometry" />
        </mxCell>
        <mxCell id="yD0bjzbKo4kkje4cAU-9-85" value="" style="shape=partialRectangle;top=0;left=0;bottom=0;html=1;fillColor=none;align=left;verticalAlign=top;spacingLeft=4;spacingRight=4;whiteSpace=wrap;overflow=hidden;rotatable=0;points=[];portConstraint=eastwest;part=1;labelBackgroundColor=none;strokeColor=#788AA3;fontColor=#46495D;" parent="yD0bjzbKo4kkje4cAU-9-84" vertex="1" connectable="0">
          <mxGeometry width="30" height="10" as="geometry" />
        </mxCell>
        <mxCell id="yD0bjzbKo4kkje4cAU-9-86" value="" style="edgeStyle=entityRelationEdgeStyle;fontSize=12;html=1;endArrow=ERmandOne;startArrow=ERmandOne;rounded=0;strokeColor=#788AA3;fontColor=#46495D;fillColor=#B2C9AB;" parent="1" source="s8aTRHkVXZxyGGqHwzvx-161" target="yD0bjzbKo4kkje4cAU-9-50" edge="1">
          <mxGeometry width="100" height="100" relative="1" as="geometry">
            <mxPoint x="320" y="61" as="sourcePoint" />
            <mxPoint x="460" y="61" as="targetPoint" />
          </mxGeometry>
        </mxCell>
        <mxCell id="yD0bjzbKo4kkje4cAU-9-87" value="" style="edgeStyle=entityRelationEdgeStyle;fontSize=12;html=1;endArrow=ERoneToMany;rounded=0;strokeColor=#788AA3;fontColor=#46495D;fillColor=#B2C9AB;" parent="1" source="yD0bjzbKo4kkje4cAU-9-50" target="-OS_wRwdG3Yrzp-EU8W0-12" edge="1">
          <mxGeometry width="100" height="100" relative="1" as="geometry">
            <mxPoint x="710" y="115" as="sourcePoint" />
            <mxPoint x="820" y="299" as="targetPoint" />
          </mxGeometry>
        </mxCell>
        <mxCell id="-OS_wRwdG3Yrzp-EU8W0-1" value="화장품 검색필터(다중선택옵션)" style="swimlane;html=1;fontStyle=0;childLayout=stackLayout;horizontal=1;startSize=26;fillColor=#B2C9AB;horizontalStack=0;resizeParent=1;resizeLast=0;collapsible=1;marginBottom=0;swimlaneFillColor=#ffffff;align=center;rounded=0;shadow=0;comic=0;labelBackgroundColor=none;strokeWidth=1;fontFamily=Verdana;fontSize=14;strokeColor=#788AA3;fontColor=#46495D;" vertex="1" parent="1">
          <mxGeometry x="400" y="610" width="210" height="170" as="geometry" />
        </mxCell>
        <mxCell id="-OS_wRwdG3Yrzp-EU8W0-10" value="seq" style="shape=partialRectangle;top=0;left=0;right=0;bottom=1;html=1;align=left;verticalAlign=middle;fillColor=none;spacingLeft=34;spacingRight=4;whiteSpace=wrap;overflow=hidden;rotatable=0;points=[[0,0.5],[1,0.5]];portConstraint=eastwest;dropTarget=0;fontStyle=5;labelBackgroundColor=none;strokeColor=#788AA3;fontColor=#46495D;" vertex="1" parent="-OS_wRwdG3Yrzp-EU8W0-1">
          <mxGeometry y="26" width="210" height="30" as="geometry" />
        </mxCell>
        <mxCell id="-OS_wRwdG3Yrzp-EU8W0-11" value="PK" style="shape=partialRectangle;top=0;left=0;bottom=0;html=1;fillColor=none;align=left;verticalAlign=middle;spacingLeft=4;spacingRight=4;whiteSpace=wrap;overflow=hidden;rotatable=0;points=[];portConstraint=eastwest;part=1;labelBackgroundColor=none;strokeColor=#788AA3;fontColor=#46495D;" vertex="1" connectable="0" parent="-OS_wRwdG3Yrzp-EU8W0-10">
          <mxGeometry width="30" height="30" as="geometry" />
        </mxCell>
        <mxCell id="-OS_wRwdG3Yrzp-EU8W0-12" value="화장품ID" style="shape=partialRectangle;top=0;left=0;right=0;bottom=0;html=1;align=left;verticalAlign=top;fillColor=none;spacingLeft=34;spacingRight=4;whiteSpace=wrap;overflow=hidden;rotatable=0;points=[[0,0.5],[1,0.5]];portConstraint=eastwest;dropTarget=0;labelBackgroundColor=none;strokeColor=#788AA3;fontColor=#46495D;" vertex="1" parent="-OS_wRwdG3Yrzp-EU8W0-1">
          <mxGeometry y="56" width="210" height="26" as="geometry" />
        </mxCell>
        <mxCell id="-OS_wRwdG3Yrzp-EU8W0-13" value="FK" style="shape=partialRectangle;top=0;left=0;bottom=0;html=1;fillColor=none;align=left;verticalAlign=top;spacingLeft=4;spacingRight=4;whiteSpace=wrap;overflow=hidden;rotatable=0;points=[];portConstraint=eastwest;part=1;labelBackgroundColor=none;strokeColor=#788AA3;fontColor=#46495D;" vertex="1" connectable="0" parent="-OS_wRwdG3Yrzp-EU8W0-12">
          <mxGeometry width="30" height="26" as="geometry" />
        </mxCell>
        <mxCell id="-OS_wRwdG3Yrzp-EU8W0-16" value="테이블명" style="shape=partialRectangle;top=0;left=0;right=0;bottom=0;html=1;align=left;verticalAlign=top;fillColor=none;spacingLeft=34;spacingRight=4;whiteSpace=wrap;overflow=hidden;rotatable=0;points=[[0,0.5],[1,0.5]];portConstraint=eastwest;dropTarget=0;labelBackgroundColor=none;strokeColor=#788AA3;fontColor=#46495D;" vertex="1" parent="-OS_wRwdG3Yrzp-EU8W0-1">
          <mxGeometry y="82" width="210" height="26" as="geometry" />
        </mxCell>
        <mxCell id="-OS_wRwdG3Yrzp-EU8W0-17" value="" style="shape=partialRectangle;top=0;left=0;bottom=0;html=1;fillColor=none;align=left;verticalAlign=top;spacingLeft=4;spacingRight=4;whiteSpace=wrap;overflow=hidden;rotatable=0;points=[];portConstraint=eastwest;part=1;labelBackgroundColor=none;strokeColor=#788AA3;fontColor=#46495D;" vertex="1" connectable="0" parent="-OS_wRwdG3Yrzp-EU8W0-16">
          <mxGeometry width="30" height="26" as="geometry" />
        </mxCell>
        <mxCell id="-OS_wRwdG3Yrzp-EU8W0-24" value="컬럼명" style="shape=partialRectangle;top=0;left=0;right=0;bottom=0;html=1;align=left;verticalAlign=top;fillColor=none;spacingLeft=34;spacingRight=4;whiteSpace=wrap;overflow=hidden;rotatable=0;points=[[0,0.5],[1,0.5]];portConstraint=eastwest;dropTarget=0;labelBackgroundColor=none;strokeColor=#788AA3;fontColor=#46495D;" vertex="1" parent="-OS_wRwdG3Yrzp-EU8W0-1">
          <mxGeometry y="108" width="210" height="26" as="geometry" />
        </mxCell>
        <mxCell id="-OS_wRwdG3Yrzp-EU8W0-25" value="" style="shape=partialRectangle;top=0;left=0;bottom=0;html=1;fillColor=none;align=left;verticalAlign=top;spacingLeft=4;spacingRight=4;whiteSpace=wrap;overflow=hidden;rotatable=0;points=[];portConstraint=eastwest;part=1;labelBackgroundColor=none;strokeColor=#788AA3;fontColor=#46495D;" vertex="1" connectable="0" parent="-OS_wRwdG3Yrzp-EU8W0-24">
          <mxGeometry width="30" height="26" as="geometry" />
        </mxCell>
        <mxCell id="-OS_wRwdG3Yrzp-EU8W0-14" value="코드" style="shape=partialRectangle;top=0;left=0;right=0;bottom=0;html=1;align=left;verticalAlign=top;fillColor=none;spacingLeft=34;spacingRight=4;whiteSpace=wrap;overflow=hidden;rotatable=0;points=[[0,0.5],[1,0.5]];portConstraint=eastwest;dropTarget=0;labelBackgroundColor=none;strokeColor=#788AA3;fontColor=#46495D;" vertex="1" parent="-OS_wRwdG3Yrzp-EU8W0-1">
          <mxGeometry y="134" width="210" height="26" as="geometry" />
        </mxCell>
        <mxCell id="-OS_wRwdG3Yrzp-EU8W0-15" value="" style="shape=partialRectangle;top=0;left=0;bottom=0;html=1;fillColor=none;align=left;verticalAlign=top;spacingLeft=4;spacingRight=4;whiteSpace=wrap;overflow=hidden;rotatable=0;points=[];portConstraint=eastwest;part=1;labelBackgroundColor=none;strokeColor=#788AA3;fontColor=#46495D;" vertex="1" connectable="0" parent="-OS_wRwdG3Yrzp-EU8W0-14">
          <mxGeometry width="30" height="26" as="geometry" />
        </mxCell>
        <mxCell id="-OS_wRwdG3Yrzp-EU8W0-8" value="" style="shape=partialRectangle;top=0;left=0;right=0;bottom=0;html=1;align=left;verticalAlign=top;fillColor=none;spacingLeft=34;spacingRight=4;whiteSpace=wrap;overflow=hidden;rotatable=0;points=[[0,0.5],[1,0.5]];portConstraint=eastwest;dropTarget=0;labelBackgroundColor=none;strokeColor=#788AA3;fontColor=#46495D;" vertex="1" parent="-OS_wRwdG3Yrzp-EU8W0-1">
          <mxGeometry y="160" width="210" height="10" as="geometry" />
        </mxCell>
        <mxCell id="-OS_wRwdG3Yrzp-EU8W0-9" value="" style="shape=partialRectangle;top=0;left=0;bottom=0;html=1;fillColor=none;align=left;verticalAlign=top;spacingLeft=4;spacingRight=4;whiteSpace=wrap;overflow=hidden;rotatable=0;points=[];portConstraint=eastwest;part=1;labelBackgroundColor=none;strokeColor=#788AA3;fontColor=#46495D;" vertex="1" connectable="0" parent="-OS_wRwdG3Yrzp-EU8W0-8">
          <mxGeometry width="30" height="10" as="geometry" />
        </mxCell>
        <mxCell id="-OS_wRwdG3Yrzp-EU8W0-23" value="" style="edgeStyle=entityRelationEdgeStyle;fontSize=12;html=1;endArrow=ERoneToMany;rounded=0;strokeColor=#788AA3;fontColor=#46495D;fillColor=#B2C9AB;" edge="1" parent="1" source="s8aTRHkVXZxyGGqHwzvx-161" target="-OS_wRwdG3Yrzp-EU8W0-12">
          <mxGeometry width="100" height="100" relative="1" as="geometry">
            <mxPoint x="640" y="71" as="sourcePoint" />
            <mxPoint x="750" y="629" as="targetPoint" />
            <Array as="points">
              <mxPoint x="450" y="480" />
            </Array>
          </mxGeometry>
        </mxCell>
        <mxCell id="-OS_wRwdG3Yrzp-EU8W0-32" value="화장품 성분사전" style="swimlane;html=1;fontStyle=0;childLayout=stackLayout;horizontal=1;startSize=26;fillColor=#B2C9AB;horizontalStack=0;resizeParent=1;resizeLast=0;collapsible=1;marginBottom=0;swimlaneFillColor=#ffffff;align=center;rounded=0;shadow=0;comic=0;labelBackgroundColor=none;strokeWidth=1;fontFamily=Verdana;fontSize=14;strokeColor=#788AA3;fontColor=#46495D;" vertex="1" parent="1">
          <mxGeometry x="480" y="-260" width="200" height="118" as="geometry" />
        </mxCell>
        <mxCell id="-OS_wRwdG3Yrzp-EU8W0-33" value="성분ID" style="shape=partialRectangle;top=0;left=0;right=0;bottom=1;html=1;align=left;verticalAlign=middle;fillColor=none;spacingLeft=34;spacingRight=4;whiteSpace=wrap;overflow=hidden;rotatable=0;points=[[0,0.5],[1,0.5]];portConstraint=eastwest;dropTarget=0;fontStyle=5;labelBackgroundColor=none;strokeColor=#788AA3;fontColor=#46495D;" vertex="1" parent="-OS_wRwdG3Yrzp-EU8W0-32">
          <mxGeometry y="26" width="200" height="30" as="geometry" />
        </mxCell>
        <mxCell id="-OS_wRwdG3Yrzp-EU8W0-34" value="PK" style="shape=partialRectangle;top=0;left=0;bottom=0;html=1;fillColor=none;align=left;verticalAlign=middle;spacingLeft=4;spacingRight=4;whiteSpace=wrap;overflow=hidden;rotatable=0;points=[];portConstraint=eastwest;part=1;labelBackgroundColor=none;strokeColor=#788AA3;fontColor=#46495D;" vertex="1" connectable="0" parent="-OS_wRwdG3Yrzp-EU8W0-33">
          <mxGeometry width="30" height="30" as="geometry" />
        </mxCell>
        <mxCell id="-OS_wRwdG3Yrzp-EU8W0-37" value="성분명" style="shape=partialRectangle;top=0;left=0;right=0;bottom=0;html=1;align=left;verticalAlign=top;fillColor=none;spacingLeft=34;spacingRight=4;whiteSpace=wrap;overflow=hidden;rotatable=0;points=[[0,0.5],[1,0.5]];portConstraint=eastwest;dropTarget=0;labelBackgroundColor=none;strokeColor=#788AA3;fontColor=#46495D;" vertex="1" parent="-OS_wRwdG3Yrzp-EU8W0-32">
          <mxGeometry y="56" width="200" height="26" as="geometry" />
        </mxCell>
        <mxCell id="-OS_wRwdG3Yrzp-EU8W0-38" value="UK" style="shape=partialRectangle;top=0;left=0;bottom=0;html=1;fillColor=none;align=left;verticalAlign=top;spacingLeft=4;spacingRight=4;whiteSpace=wrap;overflow=hidden;rotatable=0;points=[];portConstraint=eastwest;part=1;labelBackgroundColor=none;strokeColor=#788AA3;fontColor=#46495D;" vertex="1" connectable="0" parent="-OS_wRwdG3Yrzp-EU8W0-37">
          <mxGeometry width="30" height="26" as="geometry" />
        </mxCell>
        <mxCell id="-OS_wRwdG3Yrzp-EU8W0-116" value="CAS 등록번호" style="shape=partialRectangle;top=0;left=0;right=0;bottom=0;html=1;align=left;verticalAlign=top;fillColor=none;spacingLeft=34;spacingRight=4;whiteSpace=wrap;overflow=hidden;rotatable=0;points=[[0,0.5],[1,0.5]];portConstraint=eastwest;dropTarget=0;labelBackgroundColor=none;strokeColor=#788AA3;fontColor=#46495D;" vertex="1" parent="-OS_wRwdG3Yrzp-EU8W0-32">
          <mxGeometry y="82" width="200" height="26" as="geometry" />
        </mxCell>
        <mxCell id="-OS_wRwdG3Yrzp-EU8W0-117" value="" style="shape=partialRectangle;top=0;left=0;bottom=0;html=1;fillColor=none;align=left;verticalAlign=top;spacingLeft=4;spacingRight=4;whiteSpace=wrap;overflow=hidden;rotatable=0;points=[];portConstraint=eastwest;part=1;labelBackgroundColor=none;strokeColor=#788AA3;fontColor=#46495D;" vertex="1" connectable="0" parent="-OS_wRwdG3Yrzp-EU8W0-116">
          <mxGeometry width="30" height="26" as="geometry" />
        </mxCell>
        <mxCell id="-OS_wRwdG3Yrzp-EU8W0-67" value="" style="shape=partialRectangle;top=0;left=0;right=0;bottom=0;html=1;align=left;verticalAlign=top;fillColor=none;spacingLeft=34;spacingRight=4;whiteSpace=wrap;overflow=hidden;rotatable=0;points=[[0,0.5],[1,0.5]];portConstraint=eastwest;dropTarget=0;labelBackgroundColor=none;strokeColor=#788AA3;fontColor=#46495D;" vertex="1" parent="-OS_wRwdG3Yrzp-EU8W0-32">
          <mxGeometry y="108" width="200" height="10" as="geometry" />
        </mxCell>
        <mxCell id="-OS_wRwdG3Yrzp-EU8W0-68" value="" style="shape=partialRectangle;top=0;left=0;bottom=0;html=1;fillColor=none;align=left;verticalAlign=top;spacingLeft=4;spacingRight=4;whiteSpace=wrap;overflow=hidden;rotatable=0;points=[];portConstraint=eastwest;part=1;labelBackgroundColor=none;strokeColor=#788AA3;fontColor=#46495D;" vertex="1" connectable="0" parent="-OS_wRwdG3Yrzp-EU8W0-67">
          <mxGeometry width="30" height="10" as="geometry" />
        </mxCell>
        <mxCell id="-OS_wRwdG3Yrzp-EU8W0-106" value="언어별 성분명" style="swimlane;html=1;fontStyle=0;childLayout=stackLayout;horizontal=1;startSize=26;fillColor=#B2C9AB;horizontalStack=0;resizeParent=1;resizeLast=0;collapsible=1;marginBottom=0;swimlaneFillColor=#ffffff;align=center;rounded=0;shadow=0;comic=0;labelBackgroundColor=none;strokeWidth=1;fontFamily=Verdana;fontSize=14;strokeColor=#788AA3;fontColor=#46495D;" vertex="1" parent="1">
          <mxGeometry x="820" y="-260" width="200" height="118" as="geometry" />
        </mxCell>
        <mxCell id="-OS_wRwdG3Yrzp-EU8W0-107" value="성분ID" style="shape=partialRectangle;top=0;left=0;right=0;bottom=1;html=1;align=left;verticalAlign=middle;fillColor=none;spacingLeft=34;spacingRight=4;whiteSpace=wrap;overflow=hidden;rotatable=0;points=[[0,0.5],[1,0.5]];portConstraint=eastwest;dropTarget=0;fontStyle=5;labelBackgroundColor=none;strokeColor=#788AA3;fontColor=#46495D;" vertex="1" parent="-OS_wRwdG3Yrzp-EU8W0-106">
          <mxGeometry y="26" width="200" height="30" as="geometry" />
        </mxCell>
        <mxCell id="-OS_wRwdG3Yrzp-EU8W0-108" value="FK,&lt;br&gt;PK" style="shape=partialRectangle;top=0;left=0;bottom=0;html=1;fillColor=none;align=left;verticalAlign=middle;spacingLeft=4;spacingRight=4;whiteSpace=wrap;overflow=hidden;rotatable=0;points=[];portConstraint=eastwest;part=1;labelBackgroundColor=none;strokeColor=#788AA3;fontColor=#46495D;" vertex="1" connectable="0" parent="-OS_wRwdG3Yrzp-EU8W0-107">
          <mxGeometry width="30" height="30" as="geometry" />
        </mxCell>
        <mxCell id="-OS_wRwdG3Yrzp-EU8W0-113" value="언어코드(ex: ko, en, vi, ...)" style="shape=partialRectangle;top=0;left=0;right=0;bottom=0;html=1;align=left;verticalAlign=top;fillColor=none;spacingLeft=34;spacingRight=4;whiteSpace=wrap;overflow=hidden;rotatable=0;points=[[0,0.5],[1,0.5]];portConstraint=eastwest;dropTarget=0;labelBackgroundColor=none;strokeColor=#788AA3;fontColor=#46495D;" vertex="1" parent="-OS_wRwdG3Yrzp-EU8W0-106">
          <mxGeometry y="56" width="200" height="26" as="geometry" />
        </mxCell>
        <mxCell id="-OS_wRwdG3Yrzp-EU8W0-114" value="" style="shape=partialRectangle;top=0;left=0;bottom=0;html=1;fillColor=none;align=left;verticalAlign=top;spacingLeft=4;spacingRight=4;whiteSpace=wrap;overflow=hidden;rotatable=0;points=[];portConstraint=eastwest;part=1;labelBackgroundColor=none;strokeColor=#788AA3;fontColor=#46495D;" vertex="1" connectable="0" parent="-OS_wRwdG3Yrzp-EU8W0-113">
          <mxGeometry width="30" height="26" as="geometry" />
        </mxCell>
        <mxCell id="-OS_wRwdG3Yrzp-EU8W0-109" value="성분명" style="shape=partialRectangle;top=0;left=0;right=0;bottom=0;html=1;align=left;verticalAlign=top;fillColor=none;spacingLeft=34;spacingRight=4;whiteSpace=wrap;overflow=hidden;rotatable=0;points=[[0,0.5],[1,0.5]];portConstraint=eastwest;dropTarget=0;labelBackgroundColor=none;strokeColor=#788AA3;fontColor=#46495D;" vertex="1" parent="-OS_wRwdG3Yrzp-EU8W0-106">
          <mxGeometry y="82" width="200" height="26" as="geometry" />
        </mxCell>
        <mxCell id="-OS_wRwdG3Yrzp-EU8W0-110" value="PK" style="shape=partialRectangle;top=0;left=0;bottom=0;html=1;fillColor=none;align=left;verticalAlign=top;spacingLeft=4;spacingRight=4;whiteSpace=wrap;overflow=hidden;rotatable=0;points=[];portConstraint=eastwest;part=1;labelBackgroundColor=none;strokeColor=#788AA3;fontColor=#46495D;" vertex="1" connectable="0" parent="-OS_wRwdG3Yrzp-EU8W0-109">
          <mxGeometry width="30" height="26" as="geometry" />
        </mxCell>
        <mxCell id="-OS_wRwdG3Yrzp-EU8W0-111" value="" style="shape=partialRectangle;top=0;left=0;right=0;bottom=0;html=1;align=left;verticalAlign=top;fillColor=none;spacingLeft=34;spacingRight=4;whiteSpace=wrap;overflow=hidden;rotatable=0;points=[[0,0.5],[1,0.5]];portConstraint=eastwest;dropTarget=0;labelBackgroundColor=none;strokeColor=#788AA3;fontColor=#46495D;" vertex="1" parent="-OS_wRwdG3Yrzp-EU8W0-106">
          <mxGeometry y="108" width="200" height="10" as="geometry" />
        </mxCell>
        <mxCell id="-OS_wRwdG3Yrzp-EU8W0-112" value="" style="shape=partialRectangle;top=0;left=0;bottom=0;html=1;fillColor=none;align=left;verticalAlign=top;spacingLeft=4;spacingRight=4;whiteSpace=wrap;overflow=hidden;rotatable=0;points=[];portConstraint=eastwest;part=1;labelBackgroundColor=none;strokeColor=#788AA3;fontColor=#46495D;" vertex="1" connectable="0" parent="-OS_wRwdG3Yrzp-EU8W0-111">
          <mxGeometry width="30" height="10" as="geometry" />
        </mxCell>
        <mxCell id="-OS_wRwdG3Yrzp-EU8W0-115" value="" style="edgeStyle=entityRelationEdgeStyle;fontSize=12;html=1;endArrow=ERoneToMany;rounded=0;" edge="1" parent="1" source="-OS_wRwdG3Yrzp-EU8W0-33" target="-OS_wRwdG3Yrzp-EU8W0-107">
          <mxGeometry width="100" height="100" relative="1" as="geometry">
            <mxPoint x="290" y="17" as="sourcePoint" />
            <mxPoint x="350" y="65" as="targetPoint" />
            <Array as="points">
              <mxPoint x="410" y="-96" />
            </Array>
          </mxGeometry>
        </mxCell>
        <mxCell id="-OS_wRwdG3Yrzp-EU8W0-118" value="화장품 임상결과" style="swimlane;html=1;fontStyle=0;childLayout=stackLayout;horizontal=1;startSize=26;fillColor=#B2C9AB;horizontalStack=0;resizeParent=1;resizeLast=0;collapsible=1;marginBottom=0;swimlaneFillColor=#ffffff;align=center;rounded=0;shadow=0;comic=0;labelBackgroundColor=none;strokeWidth=1;fontFamily=Verdana;fontSize=14;strokeColor=#788AA3;fontColor=#46495D;" vertex="1" parent="1">
          <mxGeometry x="100" y="638" width="160" height="212" as="geometry" />
        </mxCell>
        <mxCell id="-OS_wRwdG3Yrzp-EU8W0-119" value="seq" style="shape=partialRectangle;top=0;left=0;right=0;bottom=1;html=1;align=left;verticalAlign=middle;fillColor=none;spacingLeft=34;spacingRight=4;whiteSpace=wrap;overflow=hidden;rotatable=0;points=[[0,0.5],[1,0.5]];portConstraint=eastwest;dropTarget=0;fontStyle=5;labelBackgroundColor=none;strokeColor=#788AA3;fontColor=#46495D;" vertex="1" parent="-OS_wRwdG3Yrzp-EU8W0-118">
          <mxGeometry y="26" width="160" height="30" as="geometry" />
        </mxCell>
        <mxCell id="-OS_wRwdG3Yrzp-EU8W0-120" value="PK" style="shape=partialRectangle;top=0;left=0;bottom=0;html=1;fillColor=none;align=left;verticalAlign=middle;spacingLeft=4;spacingRight=4;whiteSpace=wrap;overflow=hidden;rotatable=0;points=[];portConstraint=eastwest;part=1;labelBackgroundColor=none;strokeColor=#788AA3;fontColor=#46495D;" vertex="1" connectable="0" parent="-OS_wRwdG3Yrzp-EU8W0-119">
          <mxGeometry width="30" height="30" as="geometry" />
        </mxCell>
        <mxCell id="-OS_wRwdG3Yrzp-EU8W0-121" value="화장품ID" style="shape=partialRectangle;top=0;left=0;right=0;bottom=0;html=1;align=left;verticalAlign=top;fillColor=none;spacingLeft=34;spacingRight=4;whiteSpace=wrap;overflow=hidden;rotatable=0;points=[[0,0.5],[1,0.5]];portConstraint=eastwest;dropTarget=0;labelBackgroundColor=none;strokeColor=#788AA3;fontColor=#46495D;" vertex="1" parent="-OS_wRwdG3Yrzp-EU8W0-118">
          <mxGeometry y="56" width="160" height="26" as="geometry" />
        </mxCell>
        <mxCell id="-OS_wRwdG3Yrzp-EU8W0-122" value="FK" style="shape=partialRectangle;top=0;left=0;bottom=0;html=1;fillColor=none;align=left;verticalAlign=top;spacingLeft=4;spacingRight=4;whiteSpace=wrap;overflow=hidden;rotatable=0;points=[];portConstraint=eastwest;part=1;labelBackgroundColor=none;strokeColor=#788AA3;fontColor=#46495D;" vertex="1" connectable="0" parent="-OS_wRwdG3Yrzp-EU8W0-121">
          <mxGeometry width="30" height="26" as="geometry" />
        </mxCell>
        <mxCell id="-OS_wRwdG3Yrzp-EU8W0-123" value="피부개선 구분코드" style="shape=partialRectangle;top=0;left=0;right=0;bottom=0;html=1;align=left;verticalAlign=top;fillColor=none;spacingLeft=34;spacingRight=4;whiteSpace=wrap;overflow=hidden;rotatable=0;points=[[0,0.5],[1,0.5]];portConstraint=eastwest;dropTarget=0;labelBackgroundColor=none;strokeColor=#788AA3;fontColor=#46495D;" vertex="1" parent="-OS_wRwdG3Yrzp-EU8W0-118">
          <mxGeometry y="82" width="160" height="26" as="geometry" />
        </mxCell>
        <mxCell id="-OS_wRwdG3Yrzp-EU8W0-124" value="" style="shape=partialRectangle;top=0;left=0;bottom=0;html=1;fillColor=none;align=left;verticalAlign=top;spacingLeft=4;spacingRight=4;whiteSpace=wrap;overflow=hidden;rotatable=0;points=[];portConstraint=eastwest;part=1;labelBackgroundColor=none;strokeColor=#788AA3;fontColor=#46495D;" vertex="1" connectable="0" parent="-OS_wRwdG3Yrzp-EU8W0-123">
          <mxGeometry width="30" height="26" as="geometry" />
        </mxCell>
        <mxCell id="-OS_wRwdG3Yrzp-EU8W0-126" value="개선도(%)" style="shape=partialRectangle;top=0;left=0;right=0;bottom=0;html=1;align=left;verticalAlign=top;fillColor=none;spacingLeft=34;spacingRight=4;whiteSpace=wrap;overflow=hidden;rotatable=0;points=[[0,0.5],[1,0.5]];portConstraint=eastwest;dropTarget=0;labelBackgroundColor=none;strokeColor=#788AA3;fontColor=#46495D;" vertex="1" parent="-OS_wRwdG3Yrzp-EU8W0-118">
          <mxGeometry y="108" width="160" height="26" as="geometry" />
        </mxCell>
        <mxCell id="-OS_wRwdG3Yrzp-EU8W0-127" value="" style="shape=partialRectangle;top=0;left=0;bottom=0;html=1;fillColor=none;align=left;verticalAlign=top;spacingLeft=4;spacingRight=4;whiteSpace=wrap;overflow=hidden;rotatable=0;points=[];portConstraint=eastwest;part=1;labelBackgroundColor=none;strokeColor=#788AA3;fontColor=#46495D;" vertex="1" connectable="0" parent="-OS_wRwdG3Yrzp-EU8W0-126">
          <mxGeometry width="30" height="26" as="geometry" />
        </mxCell>
        <mxCell id="-OS_wRwdG3Yrzp-EU8W0-128" value="제목" style="shape=partialRectangle;top=0;left=0;right=0;bottom=0;html=1;align=left;verticalAlign=top;fillColor=none;spacingLeft=34;spacingRight=4;whiteSpace=wrap;overflow=hidden;rotatable=0;points=[[0,0.5],[1,0.5]];portConstraint=eastwest;dropTarget=0;labelBackgroundColor=none;strokeColor=#788AA3;fontColor=#46495D;" vertex="1" parent="-OS_wRwdG3Yrzp-EU8W0-118">
          <mxGeometry y="134" width="160" height="26" as="geometry" />
        </mxCell>
        <mxCell id="-OS_wRwdG3Yrzp-EU8W0-129" value="" style="shape=partialRectangle;top=0;left=0;bottom=0;html=1;fillColor=none;align=left;verticalAlign=top;spacingLeft=4;spacingRight=4;whiteSpace=wrap;overflow=hidden;rotatable=0;points=[];portConstraint=eastwest;part=1;labelBackgroundColor=none;strokeColor=#788AA3;fontColor=#46495D;" vertex="1" connectable="0" parent="-OS_wRwdG3Yrzp-EU8W0-128">
          <mxGeometry width="30" height="26" as="geometry" />
        </mxCell>
        <mxCell id="-OS_wRwdG3Yrzp-EU8W0-130" value="내용" style="shape=partialRectangle;top=0;left=0;right=0;bottom=0;html=1;align=left;verticalAlign=top;fillColor=none;spacingLeft=34;spacingRight=4;whiteSpace=wrap;overflow=hidden;rotatable=0;points=[[0,0.5],[1,0.5]];portConstraint=eastwest;dropTarget=0;labelBackgroundColor=none;strokeColor=#788AA3;fontColor=#46495D;" vertex="1" parent="-OS_wRwdG3Yrzp-EU8W0-118">
          <mxGeometry y="160" width="160" height="26" as="geometry" />
        </mxCell>
        <mxCell id="-OS_wRwdG3Yrzp-EU8W0-131" value="" style="shape=partialRectangle;top=0;left=0;bottom=0;html=1;fillColor=none;align=left;verticalAlign=top;spacingLeft=4;spacingRight=4;whiteSpace=wrap;overflow=hidden;rotatable=0;points=[];portConstraint=eastwest;part=1;labelBackgroundColor=none;strokeColor=#788AA3;fontColor=#46495D;" vertex="1" connectable="0" parent="-OS_wRwdG3Yrzp-EU8W0-130">
          <mxGeometry width="30" height="26" as="geometry" />
        </mxCell>
        <mxCell id="-OS_wRwdG3Yrzp-EU8W0-132" value="" style="shape=partialRectangle;top=0;left=0;right=0;bottom=0;html=1;align=left;verticalAlign=top;fillColor=none;spacingLeft=34;spacingRight=4;whiteSpace=wrap;overflow=hidden;rotatable=0;points=[[0,0.5],[1,0.5]];portConstraint=eastwest;dropTarget=0;labelBackgroundColor=none;strokeColor=#788AA3;fontColor=#46495D;" vertex="1" parent="-OS_wRwdG3Yrzp-EU8W0-118">
          <mxGeometry y="186" width="160" height="26" as="geometry" />
        </mxCell>
        <mxCell id="-OS_wRwdG3Yrzp-EU8W0-133" value="" style="shape=partialRectangle;top=0;left=0;bottom=0;html=1;fillColor=none;align=left;verticalAlign=top;spacingLeft=4;spacingRight=4;whiteSpace=wrap;overflow=hidden;rotatable=0;points=[];portConstraint=eastwest;part=1;labelBackgroundColor=none;strokeColor=#788AA3;fontColor=#46495D;" vertex="1" connectable="0" parent="-OS_wRwdG3Yrzp-EU8W0-132">
          <mxGeometry width="30" height="26" as="geometry" />
        </mxCell>
        <mxCell id="-OS_wRwdG3Yrzp-EU8W0-134" value="" style="edgeStyle=entityRelationEdgeStyle;fontSize=12;html=1;endArrow=ERzeroToMany;startArrow=ERmandOne;rounded=0;" edge="1" parent="1" source="s8aTRHkVXZxyGGqHwzvx-161" target="-OS_wRwdG3Yrzp-EU8W0-121">
          <mxGeometry width="100" height="100" relative="1" as="geometry">
            <mxPoint x="330" y="490" as="sourcePoint" />
            <mxPoint x="430" y="390" as="targetPoint" />
          </mxGeometry>
        </mxCell>
      </root>
    </mxGraphModel>
  </diagram>
</mxfile>
